# Blender v2.75 (sub 0) OBJ File: 'DYIMBA1 freecad expt.blend'
# www.blender.org
mtllib RAILING.mtl
o A-Wall_curve_.047_Mesh.004
v 5356.201172 -6130.265625 3223.717529
v 5356.201172 -6127.501953 3224.029053
v 5356.201172 -6078.315918 3224.029053
v 5356.201172 -6075.551758 3223.717529
v 5356.201172 -6072.926758 3222.798828
v 5356.201172 -6070.571289 3221.319092
v 5356.201172 -6068.604492 3219.352295
v 5356.201172 -6067.124512 3216.997070
v 5356.201172 -6066.206055 3214.371582
v 5356.201172 -6065.894531 3211.607422
v 5356.201172 -6065.894531 3162.421875
v 5356.201172 -6066.206055 3159.657715
v 5356.201172 -6067.124512 3157.032227
v 5356.201172 -6068.604492 3154.677002
v 5356.201172 -6070.571289 3152.710205
v 5356.201172 -6072.926758 3151.230469
v 5356.201172 -6075.551758 3150.311768
v 5356.201172 -6078.315918 3150.000244
v 5356.201172 -6127.501953 3150.000244
v 5356.201172 -6130.265625 3150.311768
v 5356.201172 -6132.891113 3151.230469
v 5356.201172 -6135.246582 3152.710205
v 5356.201172 -6137.213379 3154.677002
v 5356.201172 -6138.693359 3157.032227
v 5356.201172 -6139.611816 3159.657715
v 5356.201172 -6139.923340 3162.421875
v 5356.201172 -6139.923340 3211.607422
v 5356.201172 -6139.611816 3214.371582
v 5356.201172 -6138.693359 3216.997070
v 5356.201172 -6137.213379 3219.352295
v 5356.201172 -6135.246582 3221.319092
v 5356.201172 -6132.891113 3222.798828
v 456.207275 -6130.265625 3223.717529
v 456.207275 -6127.501953 3224.029053
v 456.207275 -6078.315918 3224.029053
v 456.207275 -6075.551758 3223.717529
v 456.207275 -6072.926758 3222.798828
v 456.207275 -6070.571289 3221.319092
v 456.207275 -6068.604492 3219.352295
v 456.207275 -6067.124512 3216.997070
v 456.207275 -6066.206055 3214.371582
v 456.207275 -6065.894531 3211.607422
v 456.207275 -6065.894531 3162.421875
v 456.207275 -6066.206055 3159.657715
v 456.207275 -6067.124512 3157.032227
v 456.207275 -6068.604492 3154.677002
v 456.207275 -6070.571289 3152.710205
v 456.207275 -6072.926758 3151.230469
v 456.207275 -6075.551758 3150.311768
v 456.207275 -6078.315918 3150.000244
v 456.207275 -6127.501953 3150.000244
v 456.207275 -6130.265625 3150.311768
v 456.207275 -6132.891113 3151.230469
v 456.207275 -6135.246582 3152.710205
v 456.207275 -6137.213379 3154.677002
v 456.207275 -6138.693359 3157.032227
v 456.207275 -6139.611816 3159.657715
v 456.207275 -6139.923340 3162.421875
v 456.207275 -6139.923340 3211.607422
v 456.207275 -6139.611816 3214.371582
v 456.207275 -6138.693359 3216.997070
v 456.207275 -6137.213379 3219.352295
v 456.207275 -6135.246582 3221.319092
v 456.207275 -6132.891113 3222.798828
v 5442.228027 -2417.739746 3223.717529
v 5439.463867 -2417.739746 3224.029053
v 5390.278320 -2417.739746 3224.029053
v 5387.514648 -2417.739746 3223.717529
v 5384.888672 -2417.739746 3222.798828
v 5382.533691 -2417.739746 3221.319092
v 5380.566895 -2417.739746 3219.352295
v 5379.086914 -2417.739746 3216.997070
v 5378.168457 -2417.739746 3214.371582
v 5377.856445 -2417.739746 3211.607422
v 5377.856445 -2417.739746 3162.421875
v 5378.168457 -2417.739746 3159.657715
v 5379.086914 -2417.739746 3157.032227
v 5380.566895 -2417.739746 3154.677002
v 5382.533691 -2417.739746 3152.710205
v 5384.888672 -2417.739746 3151.230469
v 5387.514648 -2417.739746 3150.311768
v 5390.278320 -2417.739746 3150.000244
v 5439.463867 -2417.739746 3150.000244
v 5442.228027 -2417.739746 3150.311768
v 5444.853516 -2417.739746 3151.230469
v 5447.208984 -2417.739746 3152.710205
v 5449.175781 -2417.739746 3154.677002
v 5450.655273 -2417.739746 3157.032227
v 5451.574219 -2417.739746 3159.657715
v 5451.885742 -2417.739746 3162.421875
v 5451.885742 -2417.739746 3211.607422
v 5451.574219 -2417.739746 3214.371582
v 5450.655273 -2417.739746 3216.997070
v 5449.175781 -2417.739746 3219.352295
v 5447.208984 -2417.739746 3221.319092
v 5444.853516 -2417.739746 3222.798828
v 5442.228027 -6017.937012 3223.717529
v 5439.463867 -6017.937012 3224.029053
v 5390.278320 -6017.937012 3224.029053
v 5387.514648 -6017.937012 3223.717529
v 5384.888672 -6017.937012 3222.798828
v 5382.533691 -6017.937012 3221.319092
v 5380.566895 -6017.937012 3219.352295
v 5379.086914 -6017.937012 3216.997070
v 5378.168457 -6017.937012 3214.371582
v 5377.856445 -6017.937012 3211.607422
v 5377.856445 -6017.937012 3162.421875
v 5378.168457 -6017.937012 3159.657715
v 5379.086914 -6017.937012 3157.032227
v 5380.566895 -6017.937012 3154.677002
v 5382.533691 -6017.937012 3152.710205
v 5384.888672 -6017.937012 3151.230469
v 5387.514648 -6017.937012 3150.311768
v 5390.278320 -6017.937012 3150.000244
v 5439.463867 -6017.937012 3150.000244
v 5442.228027 -6017.937012 3150.311768
v 5444.853516 -6017.937012 3151.230469
v 5447.208984 -6017.937012 3152.710205
v 5449.175781 -6017.937012 3154.677002
v 5450.655273 -6017.937012 3157.032227
v 5451.574219 -6017.937012 3159.657715
v 5451.885742 -6017.937012 3162.421875
v 5451.885742 -6017.937012 3211.607422
v 5451.574219 -6017.937012 3214.371582
v 5450.655273 -6017.937012 3216.997070
v 5449.175781 -6017.937012 3219.352295
v 5447.208984 -6017.937012 3221.319092
v 5444.853516 -6017.937012 3222.798828
vn 0.000000 -0.330300 0.943900
vn 0.000000 -0.112000 0.993700
vn 0.000000 0.000000 1.000000
vn 0.000000 0.112000 0.993700
vn 0.000000 0.330300 0.943900
vn 0.000000 0.531900 0.846800
vn 0.000000 0.707100 0.707100
vn 0.000000 0.846700 0.532100
vn 0.000000 0.943900 0.330200
vn 0.000000 0.993700 0.112000
vn 0.000000 1.000000 0.000000
vn 0.000000 0.993700 -0.112000
vn 0.000000 0.943900 -0.330200
vn 0.000000 0.846700 -0.532100
vn 0.000000 0.707100 -0.707100
vn 0.000000 0.531900 -0.846800
vn 0.000000 0.330300 -0.943900
vn 0.000000 0.112000 -0.993700
vn 0.000000 0.000000 -1.000000
vn 0.000000 -0.112000 -0.993700
vn 0.000000 -0.330300 -0.943900
vn 0.000000 -0.531900 -0.846800
vn 0.000000 -0.707100 -0.707100
vn 0.000000 -0.846700 -0.532100
vn 0.000000 -0.943900 -0.330200
vn 0.000000 -0.993700 -0.112000
vn 0.000000 -1.000000 0.000000
vn 0.000000 -0.993700 0.112000
vn 0.000000 -0.943900 0.330200
vn 0.000000 -0.846700 0.532100
vn 0.000000 -0.707100 0.707100
vn 0.000000 -0.531900 0.846800
vn 0.330200 0.000000 0.943900
vn 0.112000 0.000000 0.993700
vn -0.112100 0.000000 0.993700
vn -0.330200 0.000000 0.943900
vn -0.532100 0.000000 0.846700
vn -0.707100 0.000000 0.707100
vn -0.846700 0.000000 0.532100
vn -0.943900 0.000000 0.330200
vn -0.993700 0.000000 0.112200
vn -1.000000 0.000000 0.000000
vn -0.993700 0.000000 -0.112200
vn -0.943900 0.000000 -0.330200
vn -0.846700 0.000000 -0.532100
vn -0.707100 0.000000 -0.707100
vn -0.532100 0.000000 -0.846700
vn -0.330200 0.000000 -0.943900
vn -0.112100 0.000000 -0.993700
vn 0.112000 0.000000 -0.993700
vn 0.330200 0.000000 -0.943900
vn 0.532000 0.000000 -0.846700
vn 0.707100 0.000000 -0.707100
vn 0.846800 0.000000 -0.531900
vn 0.943900 0.000000 -0.330400
vn 0.993700 0.000000 -0.112000
vn 1.000000 0.000000 0.000000
vn 0.993700 0.000000 0.112000
vn 0.943900 0.000000 0.330400
vn 0.846800 0.000000 0.531900
vn 0.707100 0.000000 0.707100
vn 0.532000 0.000000 0.846700
usemtl steel
s off
f 1//1 33//1 64//1 32//1
f 2//2 34//2 33//2 1//2
f 3//3 35//3 34//3 2//3
f 4//4 36//4 35//4 3//4
f 5//5 37//5 36//5 4//5
f 6//6 38//6 37//6 5//6
f 7//7 39//7 38//7 6//7
f 8//8 40//8 39//8 7//8
f 9//9 41//9 40//9 8//9
f 10//10 42//10 41//10 9//10
f 11//11 43//11 42//11 10//11
f 12//12 44//12 43//12 11//12
f 13//13 45//13 44//13 12//13
f 14//14 46//14 45//14 13//14
f 15//15 47//15 46//15 14//15
f 16//16 48//16 47//16 15//16
f 17//17 49//17 48//17 16//17
f 18//18 50//18 49//18 17//18
f 19//19 51//19 50//19 18//19
f 20//20 52//20 51//20 19//20
f 21//21 53//21 52//21 20//21
f 22//22 54//22 53//22 21//22
f 23//23 55//23 54//23 22//23
f 24//24 56//24 55//24 23//24
f 25//25 57//25 56//25 24//25
f 26//26 58//26 57//26 25//26
f 27//27 59//27 58//27 26//27
f 28//28 60//28 59//28 27//28
f 29//29 61//29 60//29 28//29
f 30//30 62//30 61//30 29//30
f 31//31 63//31 62//31 30//31
f 32//32 64//32 63//32 31//32
f 65//33 97//33 128//33 96//33
f 66//34 98//34 97//34 65//34
f 67//3 99//3 98//3 66//3
f 68//35 100//35 99//35 67//35
f 69//36 101//36 100//36 68//36
f 70//37 102//37 101//37 69//37
f 71//38 103//38 102//38 70//38
f 72//39 104//39 103//39 71//39
f 73//40 105//40 104//40 72//40
f 74//41 106//41 105//41 73//41
f 75//42 107//42 106//42 74//42
f 76//43 108//43 107//43 75//43
f 77//44 109//44 108//44 76//44
f 78//45 110//45 109//45 77//45
f 79//46 111//46 110//46 78//46
f 80//47 112//47 111//47 79//47
f 81//48 113//48 112//48 80//48
f 82//49 114//49 113//49 81//49
f 83//19 115//19 114//19 82//19
f 84//50 116//50 115//50 83//50
f 85//51 117//51 116//51 84//51
f 86//52 118//52 117//52 85//52
f 87//53 119//53 118//53 86//53
f 88//54 120//54 119//54 87//54
f 89//55 121//55 120//55 88//55
f 90//56 122//56 121//56 89//56
f 91//57 123//57 122//57 90//57
f 92//58 124//58 123//58 91//58
f 93//59 125//59 124//59 92//59
f 94//60 126//60 125//60 93//60
f 95//61 127//61 126//61 94//61
f 96//62 128//62 127//62 95//62
f 108//27 109//27 110//27 111//27 112//27 113//27 114//27 115//27 116//27 117//27 118//27 119//27 120//27 121//27 122//27 123//27 124//27 125//27 126//27 127//27 128//27 97//27 98//27 99//27 100//27 101//27 102//27 103//27 104//27 105//27 106//27 107//27
f 26//57 25//57 24//57 23//57 22//57 21//57 20//57 19//57 18//57 17//57 16//57 15//57 14//57 13//57 12//57 11//57 10//57 9//57 8//57 7//57 6//57 5//57 4//57 3//57 2//57 1//57 32//57 31//57 30//57 29//57 28//57 27//57
f 63//42 64//42 33//42 34//42 35//42 36//42 37//42 38//42 39//42 40//42 41//42 42//42 43//42 44//42 45//42 46//42 47//42 48//42 49//42 50//42 51//42 52//42 53//42 54//42 55//42 56//42 57//42 58//42 59//42 60//42 61//42 62//42
f 67//11 66//11 65//11 96//11 95//11 94//11 93//11 92//11 91//11 90//11 89//11 88//11 87//11 86//11 85//11 84//11 83//11 82//11 81//11 80//11 79//11 78//11 77//11 76//11 75//11 74//11 73//11 72//11 71//11 70//11 69//11 68//11
o A-Wall_curve_.046_Mesh.028
v 5356.201172 -6130.265625 4036.702881
v 5356.201172 -6127.501953 4037.014404
v 5356.201172 -6078.315918 4037.014404
v 5356.201172 -6075.551758 4036.702881
v 5356.201172 -6072.926758 4035.784180
v 5356.201172 -6070.571289 4034.304443
v 5356.201172 -6068.604492 4032.337646
v 5356.201172 -6067.124512 4029.982422
v 5356.201172 -6066.206055 4027.356934
v 5356.201172 -6065.894531 4024.592773
v 5356.201172 -6065.894531 3975.407227
v 5356.201172 -6066.206055 3972.643066
v 5356.201172 -6067.124512 3970.017578
v 5356.201172 -6068.604492 3967.662354
v 5356.201172 -6070.571289 3965.695557
v 5356.201172 -6072.926758 3964.215820
v 5356.201172 -6075.551758 3963.297119
v 5356.201172 -6078.315918 3962.985596
v 5356.201172 -6127.501953 3962.985596
v 5356.201172 -6130.265625 3963.297119
v 5356.201172 -6132.891113 3964.215820
v 5356.201172 -6135.246582 3965.695557
v 5356.201172 -6137.213379 3967.662354
v 5356.201172 -6138.693359 3970.017578
v 5356.201172 -6139.611816 3972.643066
v 5356.201172 -6139.923340 3975.407227
v 5356.201172 -6139.923340 4024.592773
v 5356.201172 -6139.611816 4027.356934
v 5356.201172 -6138.693359 4029.982422
v 5356.201172 -6137.213379 4032.337646
v 5356.201172 -6135.246582 4034.304443
v 5356.201172 -6132.891113 4035.784180
v 456.207275 -6130.265625 4036.702881
v 456.207275 -6127.501953 4037.014404
v 456.207275 -6078.315918 4037.014404
v 456.207275 -6075.551758 4036.702881
v 456.207275 -6072.926758 4035.784180
v 456.207275 -6070.571289 4034.304443
v 456.207275 -6068.604492 4032.337646
v 456.207275 -6067.124512 4029.982422
v 456.207275 -6066.206055 4027.356934
v 456.207275 -6065.894531 4024.592773
v 456.207275 -6065.894531 3975.407227
v 456.207275 -6066.206055 3972.643066
v 456.207275 -6067.124512 3970.017578
v 456.207275 -6068.604492 3967.662354
v 456.207275 -6070.571289 3965.695557
v 456.207275 -6072.926758 3964.215820
v 456.207275 -6075.551758 3963.297119
v 456.207275 -6078.315918 3962.985596
v 456.207275 -6127.501953 3962.985596
v 456.207275 -6130.265625 3963.297119
v 456.207275 -6132.891113 3964.215820
v 456.207275 -6135.246582 3965.695557
v 456.207275 -6137.213379 3967.662354
v 456.207275 -6138.693359 3970.017578
v 456.207275 -6139.611816 3972.643066
v 456.207275 -6139.923340 3975.407227
v 456.207275 -6139.923340 4024.592773
v 456.207275 -6139.611816 4027.356934
v 456.207275 -6138.693359 4029.982422
v 456.207275 -6137.213379 4032.337646
v 456.207275 -6135.246582 4034.304443
v 456.207275 -6132.891113 4035.784180
v 5442.228027 -2417.739746 4036.702881
v 5439.463867 -2417.739746 4037.014404
v 5390.278320 -2417.739746 4037.014404
v 5387.514648 -2417.739746 4036.702881
v 5384.888672 -2417.739746 4035.784180
v 5382.533691 -2417.739746 4034.304443
v 5380.566895 -2417.739746 4032.337646
v 5379.086914 -2417.739746 4029.982422
v 5378.168457 -2417.739746 4027.356934
v 5377.856445 -2417.739746 4024.592773
v 5377.856445 -2417.739746 3975.407227
v 5378.168457 -2417.739746 3972.643066
v 5379.086914 -2417.739746 3970.017578
v 5380.566895 -2417.739746 3967.662354
v 5382.533691 -2417.739746 3965.695557
v 5384.888672 -2417.739746 3964.215820
v 5387.514648 -2417.739746 3963.297119
v 5390.278320 -2417.739746 3962.985596
v 5439.463867 -2417.739746 3962.985596
v 5442.228027 -2417.739746 3963.297119
v 5444.853516 -2417.739746 3964.215820
v 5447.208984 -2417.739746 3965.695557
v 5449.175781 -2417.739746 3967.662354
v 5450.655273 -2417.739746 3970.017578
v 5451.574219 -2417.739746 3972.643066
v 5451.885742 -2417.739746 3975.407227
v 5451.885742 -2417.739746 4024.592773
v 5451.574219 -2417.739746 4027.356934
v 5450.655273 -2417.739746 4029.982422
v 5449.175781 -2417.739746 4032.337646
v 5447.208984 -2417.739746 4034.304443
v 5444.853516 -2417.739746 4035.784180
v 5442.228027 -6017.937012 4036.702881
v 5439.463867 -6017.937012 4037.014404
v 5390.278320 -6017.937012 4037.014404
v 5387.514648 -6017.937012 4036.702881
v 5384.888672 -6017.937012 4035.784180
v 5382.533691 -6017.937012 4034.304443
v 5380.566895 -6017.937012 4032.337646
v 5379.086914 -6017.937012 4029.982422
v 5378.168457 -6017.937012 4027.356934
v 5377.856445 -6017.937012 4024.592773
v 5377.856445 -6017.937012 3975.407227
v 5378.168457 -6017.937012 3972.643066
v 5379.086914 -6017.937012 3970.017578
v 5380.566895 -6017.937012 3967.662354
v 5382.533691 -6017.937012 3965.695557
v 5384.888672 -6017.937012 3964.215820
v 5387.514648 -6017.937012 3963.297119
v 5390.278320 -6017.937012 3962.985596
v 5439.463867 -6017.937012 3962.985596
v 5442.228027 -6017.937012 3963.297119
v 5444.853516 -6017.937012 3964.215820
v 5447.208984 -6017.937012 3965.695557
v 5449.175781 -6017.937012 3967.662354
v 5450.655273 -6017.937012 3970.017578
v 5451.574219 -6017.937012 3972.643066
v 5451.885742 -6017.937012 3975.407227
v 5451.885742 -6017.937012 4024.592773
v 5451.574219 -6017.937012 4027.356934
v 5450.655273 -6017.937012 4029.982422
v 5449.175781 -6017.937012 4032.337646
v 5447.208984 -6017.937012 4034.304443
v 5444.853516 -6017.937012 4035.784180
vn 0.000000 -0.330300 0.943900
vn 0.000000 -0.112000 0.993700
vn 0.000000 0.000000 1.000000
vn 0.000000 0.112000 0.993700
vn 0.000000 0.330300 0.943900
vn 0.000000 0.531900 0.846800
vn 0.000000 0.707100 0.707100
vn 0.000000 0.846700 0.532100
vn 0.000000 0.943900 0.330200
vn 0.000000 0.993700 0.112000
vn 0.000000 1.000000 0.000000
vn 0.000000 0.993700 -0.112000
vn 0.000000 0.943900 -0.330200
vn 0.000000 0.846700 -0.532100
vn 0.000000 0.707100 -0.707100
vn 0.000000 0.531900 -0.846800
vn 0.000000 0.330300 -0.943900
vn 0.000000 0.112000 -0.993700
vn 0.000000 0.000000 -1.000000
vn 0.000000 -0.112000 -0.993700
vn 0.000000 -0.330300 -0.943900
vn 0.000000 -0.531900 -0.846800
vn 0.000000 -0.707100 -0.707100
vn 0.000000 -0.846700 -0.532100
vn 0.000000 -0.943900 -0.330200
vn 0.000000 -0.993700 -0.112000
vn 0.000000 -1.000000 0.000000
vn 0.000000 -0.993700 0.112000
vn 0.000000 -0.943900 0.330200
vn 0.000000 -0.846700 0.532100
vn 0.000000 -0.707100 0.707100
vn 0.000000 -0.531900 0.846800
vn 0.330300 0.000000 0.943900
vn 0.111900 0.000000 0.993700
vn -0.112000 0.000000 0.993700
vn -0.330300 0.000000 0.943900
vn -0.532000 0.000000 0.846700
vn -0.707100 0.000000 0.707100
vn -0.846700 0.000000 0.532100
vn -0.943900 0.000000 0.330200
vn -0.993700 0.000000 0.112200
vn -1.000000 0.000000 0.000000
vn -0.993700 0.000000 -0.112200
vn -0.943900 0.000000 -0.330200
vn -0.846700 0.000000 -0.532100
vn -0.707100 0.000000 -0.707100
vn -0.532000 0.000000 -0.846700
vn -0.330300 0.000000 -0.943900
vn -0.112000 0.000000 -0.993700
vn 0.111900 0.000000 -0.993700
vn 0.330300 0.000000 -0.943900
vn 0.531900 0.000000 -0.846800
vn 0.707100 0.000000 -0.707100
vn 0.846800 0.000000 -0.531900
vn 0.943900 0.000000 -0.330300
vn 0.993700 0.000000 -0.112000
vn 1.000000 0.000000 0.000000
vn 0.993700 0.000000 0.112000
vn 0.943900 0.000000 0.330300
vn 0.846800 0.000000 0.531900
vn 0.707100 0.000000 0.707100
vn 0.531900 0.000000 0.846800
usemtl steel
s off
f 129//63 161//63 192//63 160//63
f 130//64 162//64 161//64 129//64
f 131//65 163//65 162//65 130//65
f 132//66 164//66 163//66 131//66
f 133//67 165//67 164//67 132//67
f 134//68 166//68 165//68 133//68
f 135//69 167//69 166//69 134//69
f 136//70 168//70 167//70 135//70
f 137//71 169//71 168//71 136//71
f 138//72 170//72 169//72 137//72
f 139//73 171//73 170//73 138//73
f 140//74 172//74 171//74 139//74
f 141//75 173//75 172//75 140//75
f 142//76 174//76 173//76 141//76
f 143//77 175//77 174//77 142//77
f 144//78 176//78 175//78 143//78
f 145//79 177//79 176//79 144//79
f 146//80 178//80 177//80 145//80
f 147//81 179//81 178//81 146//81
f 148//82 180//82 179//82 147//82
f 149//83 181//83 180//83 148//83
f 150//84 182//84 181//84 149//84
f 151//85 183//85 182//85 150//85
f 152//86 184//86 183//86 151//86
f 153//87 185//87 184//87 152//87
f 154//88 186//88 185//88 153//88
f 155//89 187//89 186//89 154//89
f 156//90 188//90 187//90 155//90
f 157//91 189//91 188//91 156//91
f 158//92 190//92 189//92 157//92
f 159//93 191//93 190//93 158//93
f 160//94 192//94 191//94 159//94
f 193//95 225//95 256//95 224//95
f 194//96 226//96 225//96 193//96
f 195//65 227//65 226//65 194//65
f 196//97 228//97 227//97 195//97
f 197//98 229//98 228//98 196//98
f 198//99 230//99 229//99 197//99
f 199//100 231//100 230//100 198//100
f 200//101 232//101 231//101 199//101
f 201//102 233//102 232//102 200//102
f 202//103 234//103 233//103 201//103
f 203//104 235//104 234//104 202//104
f 204//105 236//105 235//105 203//105
f 205//106 237//106 236//106 204//106
f 206//107 238//107 237//107 205//107
f 207//108 239//108 238//108 206//108
f 208//109 240//109 239//109 207//109
f 209//110 241//110 240//110 208//110
f 210//111 242//111 241//111 209//111
f 211//81 243//81 242//81 210//81
f 212//112 244//112 243//112 211//112
f 213//113 245//113 244//113 212//113
f 214//114 246//114 245//114 213//114
f 215//115 247//115 246//115 214//115
f 216//116 248//116 247//116 215//116
f 217//117 249//117 248//117 216//117
f 218//118 250//118 249//118 217//118
f 219//119 251//119 250//119 218//119
f 220//120 252//120 251//120 219//120
f 221//121 253//121 252//121 220//121
f 222//122 254//122 253//122 221//122
f 223//123 255//123 254//123 222//123
f 224//124 256//124 255//124 223//124
f 236//89 237//89 238//89 239//89 240//89 241//89 242//89 243//89 244//89 245//89 246//89 247//89 248//89 249//89 250//89 251//89 252//89 253//89 254//89 255//89 256//89 225//89 226//89 227//89 228//89 229//89 230//89 231//89 232//89 233//89 234//89 235//89
f 154//119 153//119 152//119 151//119 150//119 149//119 148//119 147//119 146//119 145//119 144//119 143//119 142//119 141//119 140//119 139//119 138//119 137//119 136//119 135//119 134//119 133//119 132//119 131//119 130//119 129//119 160//119 159//119 158//119 157//119 156//119 155//119
f 191//104 192//104 161//104 162//104 163//104 164//104 165//104 166//104 167//104 168//104 169//104 170//104 171//104 172//104 173//104 174//104 175//104 176//104 177//104 178//104 179//104 180//104 181//104 182//104 183//104 184//104 185//104 186//104 187//104 188//104 189//104 190//104
f 195//73 194//73 193//73 224//73 223//73 222//73 221//73 220//73 219//73 218//73 217//73 216//73 215//73 214//73 213//73 212//73 211//73 210//73 209//73 208//73 207//73 206//73 205//73 204//73 203//73 202//73 201//73 200//73 199//73 198//73 197//73 196//73
