<?xml version="1.0" encoding="UTF-8"?>

<svg xmlns="http://www.w3.org/2000/svg" version="1.1"
	width="420mm"
	height="297mm"
	viewBox="0 0 420 297">
	<!-- Working space 0 0 420 297 -->
	<defs>
		<radialGradient
			id="radialGradient3661"
			gradientUnits="userSpaceOnUse"
			cy="29.149"
			cx="282.65"
			gradientTransform="matrix(.14777 .23089 -.24680 .15795 -26.318 -62.617)"
			r="19.571">
				<stop stop-color="#71b2f8" offset="0"/>
				<stop stop-color="#002795" offset="1"/>
		</radialGradient>
		<radialGradient
			id="radialGradient3817"
			gradientUnits="userSpaceOnUse"
			cy="33.9"
			cx="270.58"
			gradientTransform="matrix(.26631 .065024 -.17931 .73438 -60.668 -36.938)"
			r="19.571">
				<stop stop-color="#ff6d0f" offset="0"/>
				<stop stop-color="#ff1000" offset="1"/>
		</radialGradient>
	</defs>
	<!-- Set display:none to hide FreeCAD Logo -->
	<g
		style="display:inline"
		id="freecad-logo"
		transform="translate(386, 264) scale(1.5)"
		fill-rule="evenodd"
		stroke-width=".45621">
		<path d="m0.22811 0.22835v13.256h2.9558v-5.1876h2.09v-2.0452h-2.09v-2.2075h5.1486v-3.8087l-8.1044-0.0075z"
			stroke="#370700"
			fill="url(#radialGradient3817)"/>
		<path d="m13.386 4.1792-1.7193 0.98645-0.75925-0.26348-0.72439-1.8513-1.1395 0.05988-0.51976 1.9144-0.72743 0.34835-1.8143-0.79367-0.76632 0.85156 0.98645 1.7193-0.26957 0.75702-1.8513 0.72439 0.065967 1.1417 1.9144 0.51976 0.34835 0.72743-0.79976 1.8121 0.85156 0.76632 1.7193-0.98645 0.76311 0.27179 0.7183 1.8491 1.1478-0.06375 0.51367-1.9166 0.72743-0.34835 1.8182 0.80198 0.76632-0.85156-0.98645-1.7193 0.2657-0.76533 1.8491-0.7183-0.05766-1.1456-1.9166-0.51367-0.34835-0.72743 0.7959-1.8204-0.85156-0.76632zm-2.5751 2.8195 0.35295 0.20478 0.30579 0.27725 0.24481 0.33087 0.17611 0.36787 0.10354 0.39656 0.01715 0.4064-0.0587 0.4063-0.13396 0.38571-0.2131 0.35681-0.26894 0.30192-0.33087 0.24481-0.36787 0.17611-0.39656 0.10354-0.40863 0.02325-0.4063-0.0587-0.38571-0.13396-0.35681-0.2131-0.2997-0.27503-0.24703-0.32478-0.17611-0.36787-0.10132-0.40264-0.02324-0.40863 0.05869-0.4063 0.13396-0.38571 0.21087-0.35072 0.27116-0.30801 0.33087-0.24481 0.36787-0.17611 0.40264-0.10132 0.40641-0.01715 0.4063 0.05869 0.38571 0.13396z" 
		stroke="#000137"
		fill="url(#radialGradient3661)"/>
	</g>
<g id="ViewSpace" transform="rotate(0.0,50.0,200.0) translate(50.0,200.0) scale(0.01,-0.01)"><text fill="#000000" font-size="150.0" style="text-anchor:end;text-align:right;font-family:Arial" transform="rotate(0.0,8573.1171875,3104.63598633) translate(8573.1171875,3104.63598633) scale(1,-1) " freecad:skip="1">
Veranda</text>
<text fill="#000000" font-size="75.0" style="text-anchor:end;text-align:right;font-family:Arial" transform="rotate(0.0,8573.1171875,2944.63598633) translate(8573.1171875,2944.63598633) scale(1,-1) " freecad:skip="1">
10.08m²</text>
</g>


<g id="ViewSpace002" transform="rotate(0.0,50.0,200.0) translate(50.0,200.0) scale(0.01,-0.01)"><text fill="#000000" font-size="150.0" style="text-anchor:end;text-align:right;font-family:Arial" transform="rotate(0.0,4519.99902344,3234.80566406) translate(4519.99902344,3234.80566406) scale(1,-1) " freecad:skip="1">
Foyer</text>
<text fill="#000000" font-size="75.0" style="text-anchor:end;text-align:right;font-family:Arial" transform="rotate(0.0,4519.99902344,3074.80566406) translate(4519.99902344,3074.80566406) scale(1,-1) " freecad:skip="1">
4.72m²</text>
</g>


<g id="ViewSpace003" transform="rotate(0.0,50.0,200.0) translate(50.0,200.0) scale(0.01,-0.01)"><text fill="#000000" font-size="150.0" style="text-anchor:end;text-align:right;font-family:Arial" transform="rotate(0.0,2059.51318359,3712.99902344) translate(2059.51318359,3712.99902344) scale(1,-1) " freecad:skip="1">
Guest Bedroom</text>
<text fill="#000000" font-size="75.0" style="text-anchor:end;text-align:right;font-family:Arial" transform="rotate(0.0,2059.51318359,3552.99902344) translate(2059.51318359,3552.99902344) scale(1,-1) " freecad:skip="1">
12.74m²</text>
</g>


<g id="ViewSpace004" transform="rotate(0.0,50.0,200.0) translate(50.0,200.0) scale(0.01,-0.01)"><text fill="#000000" font-size="150.0" style="text-anchor:end;text-align:right;font-family:Arial" transform="rotate(0.0,2032.56665039,7666.62695312) translate(2032.56665039,7666.62695312) scale(1,-1) " freecad:skip="1">
Guest bathroom</text>
<text fill="#000000" font-size="75.0" style="text-anchor:end;text-align:right;font-family:Arial" transform="rotate(0.0,2032.56665039,7506.62695312) translate(2032.56665039,7506.62695312) scale(1,-1) " freecad:skip="1">
4.72m²</text>
</g>


<g id="ViewSpace005" transform="rotate(0.0,50.0,200.0) translate(50.0,200.0) scale(0.01,-0.01)"><text fill="#000000" font-size="150.0" style="text-anchor:end;text-align:right;font-family:Arial" transform="rotate(0.0,1619.99902344,9160.0) translate(1619.99902344,9160.0) scale(1,-1) " freecad:skip="1">
Toilet</text>
<text fill="#000000" font-size="75.0" style="text-anchor:end;text-align:right;font-family:Arial" transform="rotate(0.0,1619.99902344,9000.0) translate(1619.99902344,9000.0) scale(1,-1) " freecad:skip="1">
3.54m²</text>
</g>


<g id="ViewSpace006" transform="rotate(0.0,50.0,200.0) translate(50.0,200.0) scale(0.01,-0.01)"><text fill="#000000" font-size="150.0" style="text-anchor:end;text-align:right;font-family:Arial" transform="rotate(0.0,2294.99902344,11470.0) translate(2294.99902344,11470.0) scale(1,-1) " freecad:skip="1">
Laundery</text>
<text fill="#000000" font-size="75.0" style="text-anchor:end;text-align:right;font-family:Arial" transform="rotate(0.0,2294.99902344,11310.0) translate(2294.99902344,11310.0) scale(1,-1) " freecad:skip="1">
13.42m²</text>
</g>


<g id="ViewSpace007" transform="rotate(0.0,50.0,200.0) translate(50.0,200.0) scale(0.01,-0.01)"><text fill="#000000" font-size="150.0" style="text-anchor:end;text-align:right;font-family:Arial" transform="rotate(0.0,2120.0,14184.0) translate(2120.0,14184.0) scale(1,-1) " freecad:skip="1">
Rear Veranda</text>
<text fill="#000000" font-size="75.0" style="text-anchor:end;text-align:right;font-family:Arial" transform="rotate(0.0,2120.0,14024.0) translate(2120.0,14024.0) scale(1,-1) " freecad:skip="1">
9.22m²</text>
</g>


<g id="ViewSpace008" transform="rotate(0.0,50.0,200.0) translate(50.0,200.0) scale(0.01,-0.01)"><text fill="#000000" font-size="150.0" style="text-anchor:end;text-align:right;font-family:Arial" transform="rotate(0.0,6289.0,14103.0) translate(6289.0,14103.0) scale(1,-1) " freecad:skip="1">
Kitchen</text>
<text fill="#000000" font-size="75.0" style="text-anchor:end;text-align:right;font-family:Arial" transform="rotate(0.0,6289.0,13943.0) translate(6289.0,13943.0) scale(1,-1) " freecad:skip="1">
15.71m²</text>
</g>


<g id="ViewSpace009" transform="rotate(0.0,50.0,200.0) translate(50.0,200.0) scale(0.01,-0.01)"><text fill="#000000" font-size="150.0" style="text-anchor:end;text-align:right;font-family:Arial" transform="rotate(0.0,10212.0,14224.0) translate(10212.0,14224.0) scale(1,-1) " freecad:skip="1">
Storage</text>
<text fill="#000000" font-size="75.0" style="text-anchor:end;text-align:right;font-family:Arial" transform="rotate(0.0,10212.0,14064.0) translate(10212.0,14064.0) scale(1,-1) " freecad:skip="1">
5.38m²</text>
</g>


<g id="ViewSpace010" transform="rotate(0.0,50.0,200.0) translate(50.0,200.0) scale(0.01,-0.01)"><text fill="#000000" font-size="150.0" style="text-anchor:end;text-align:right;font-family:Arial" transform="rotate(0.0,4924.0,6427.0) translate(4924.0,6427.0) scale(1,-1) " freecad:skip="1">
Corridor</text>
<text fill="#000000" font-size="75.0" style="text-anchor:end;text-align:right;font-family:Arial" transform="rotate(0.0,4924.0,6267.0) translate(4924.0,6267.0) scale(1,-1) " freecad:skip="1">
12.08m²</text>
</g>


<g id="ViewSpace011" transform="rotate(0.0,220.0,200.0) translate(220.0,200.0) scale(0.01,-0.01)"><text fill="#000000" font-size="150.0" style="text-anchor:end;text-align:right;font-family:Arial" transform="rotate(0.0,9179.85351562,4114.45532227) translate(9179.85351562,4114.45532227) scale(1,-1) " freecad:skip="1">
Balcony</text>
<text fill="#000000" font-size="75.0" style="text-anchor:end;text-align:right;font-family:Arial" transform="rotate(0.0,9179.85351562,3954.45532227) translate(9179.85351562,3954.45532227) scale(1,-1) " freecad:skip="1">
19.65m²</text>
</g>


<g id="ViewSpace012" transform="rotate(0.0,220.0,200.0) translate(220.0,200.0) scale(0.01,-0.01)"><text fill="#000000" font-size="150.0" style="text-anchor:end;text-align:right;font-family:Arial" transform="rotate(0.0,2824.8347168,4733.40234375) translate(2824.8347168,4733.40234375) scale(1,-1) " freecad:skip="1">
Master Bedroom</text>
<text fill="#000000" font-size="75.0" style="text-anchor:end;text-align:right;font-family:Arial" transform="rotate(0.0,2824.8347168,4573.40234375) translate(2824.8347168,4573.40234375) scale(1,-1) " freecad:skip="1">
26.99m²</text>
</g>


<g id="ViewSpace013" transform="rotate(0.0,220.0,200.0) translate(220.0,200.0) scale(0.01,-0.01)"><text fill="#000000" font-size="150.0" style="text-anchor:end;text-align:right;font-family:Arial" transform="rotate(0.0,2295.0,8660.0) translate(2295.0,8660.0) scale(1,-1) " freecad:skip="1">
Master Bathroom</text>
<text fill="#000000" font-size="75.0" style="text-anchor:end;text-align:right;font-family:Arial" transform="rotate(0.0,2295.0,8500.0) translate(2295.0,8500.0) scale(1,-1) " freecad:skip="1">
9.46m²</text>
</g>


<g id="ViewSpace014" transform="rotate(0.0,220.0,200.0) translate(220.0,200.0) scale(0.01,-0.01)"><text fill="#000000" font-size="150.0" style="text-anchor:end;text-align:right;font-family:Arial" transform="rotate(0.0,2287.48828125,11027.2539062) translate(2287.48828125,11027.2539062) scale(1,-1) " freecad:skip="1">
Study</text>
<text fill="#000000" font-size="75.0" style="text-anchor:end;text-align:right;font-family:Arial" transform="rotate(0.0,2287.48828125,10867.2539062) translate(2287.48828125,10867.2539062) scale(1,-1) " freecad:skip="1">
9.58m²</text>
</g>


<g id="ViewSpace015" transform="rotate(0.0,220.0,200.0) translate(220.0,200.0) scale(0.01,-0.01)"><text fill="#000000" font-size="150.0" style="text-anchor:end;text-align:right;font-family:Arial" transform="rotate(0.0,2295.0,14160.0) translate(2295.0,14160.0) scale(1,-1) " freecad:skip="1">
Small Living</text>
<text fill="#000000" font-size="75.0" style="text-anchor:end;text-align:right;font-family:Arial" transform="rotate(0.0,2295.0,14000.0) translate(2295.0,14000.0) scale(1,-1) " freecad:skip="1">
15.91m²</text>
</g>


<g id="ViewSpace017" transform="rotate(0.0,220.0,200.0) translate(220.0,200.0) scale(0.01,-0.01)"><text fill="#000000" font-size="150.0" style="text-anchor:end;text-align:right;font-family:Arial" transform="rotate(0.0,9079.40820312,8208.24609375) translate(9079.40820312,8208.24609375) scale(1,-1) " freecad:skip="1">
Bedroom 1</text>
<text fill="#000000" font-size="75.0" style="text-anchor:end;text-align:right;font-family:Arial" transform="rotate(0.0,9079.40820312,8048.24609375) translate(9079.40820312,8048.24609375) scale(1,-1) " freecad:skip="1">
14.11m²</text>
</g>


<g id="ViewSpace018" transform="rotate(0.0,220.0,200.0) translate(220.0,200.0) scale(0.01,-0.01)"><text fill="#000000" font-size="150.0" style="text-anchor:end;text-align:right;font-family:Arial" transform="rotate(0.0,9079.40917969,14011.7539062) translate(9079.40917969,14011.7539062) scale(1,-1) " freecad:skip="1">
Bedroom 2</text>
<text fill="#000000" font-size="75.0" style="text-anchor:end;text-align:right;font-family:Arial" transform="rotate(0.0,9079.40917969,13851.7539062) translate(9079.40917969,13851.7539062) scale(1,-1) " freecad:skip="1">
14.11m²</text>
</g>


<g id="ViewSpace019" transform="rotate(0.0,220.0,200.0) translate(220.0,200.0) scale(0.01,-0.01)"><text fill="#000000" font-size="150.0" style="text-anchor:end;text-align:right;font-family:Arial" transform="rotate(0.0,9070.0,11110.0) translate(9070.0,11110.0) scale(1,-1) " freecad:skip="1">
Bathroom</text>
<text fill="#000000" font-size="75.0" style="text-anchor:end;text-align:right;font-family:Arial" transform="rotate(0.0,9070.0,10950.0) translate(9070.0,10950.0) scale(1,-1) " freecad:skip="1">
5.32m²</text>
</g>


<g id="ViewSpace020" transform="rotate(0.0,220.0,200.0) translate(220.0,200.0) scale(0.01,-0.01)"><text fill="#000000" font-size="150.0" style="text-anchor:end;text-align:right;font-family:Arial" transform="rotate(0.0,6846.89160156,13382.7802734) translate(6846.89160156,13382.7802734) scale(1,-1) " freecad:skip="1">
Stair Corridor</text>
<text fill="#000000" font-size="75.0" style="text-anchor:end;text-align:right;font-family:Arial" transform="rotate(0.0,6846.89160156,13222.7802734) translate(6846.89160156,13222.7802734) scale(1,-1) " freecad:skip="1">
18.55m²</text>
</g>


<g id="ViewGroup044" transform="rotate(0.0,220.0,200.0) translate(220.0,200.0) scale(0.01,-0.01)"></g>


<g id="ViewGroup043" transform="rotate(0.0,50.0,200.0) translate(50.0,200.0) scale(0.01,-0.01)"></g>


</svg>

