DBRep_DrawableShape

CASCADE Topology V1, (c) Matra-Datavision
Locations 30
1
              1               0               0 0.00195309999980964 
              0               1               0 0.000212966127264735 
              0               0               1 -3.63400004061987e-05 
1
              1               0               0               0 
              0               1               0               0 
              0               0               1               0 
1
              1               0               0 0.00195309999980964 
              0               1               0 0.000212966127264735 
              0               0               1 -3.63400004061987e-05 
2  3 -1 2 -1 0
1
              1 -3.06161699786e-17               0              -5 
3.06161699786e-17               1               0            2000 
              0               0               1            6000 
2  5 -1 0
2  2 -1 5 -1 0
2  3 -1 2 -1 5 -1 0
1
              1               0               0              -0 
              0               1               0               0 
              0               0               1            -200 
2  5 1 9 1 0
2  9 -1 5 -1 0
2  2 -1 9 -1 5 -1 0
2  3 -1 2 -1 9 -1 5 -1 0
2  5 1 2 1 0
1
              1 -3.06161699786e-17               0            5945 
3.06161699786e-17               1               0            5900 
              0               0               1            6000 
1
              1               0               0               0 
              0               1               0               0 
              0               0               1               0 
2  15 1 16 1 0
2  5 1 2 1 16 -1 15 -1 0
2  15 -1 0
2  16 -1 15 -1 0
2  3 -1 16 -1 15 -1 0
2  5 1 9 1 2 1 0
1
              1               0               0              -0 
              0               1               0               0 
              0               0               1            -200 
2  15 1 23 1 16 1 0
2  5 1 9 1 2 1 16 -1 23 -1 15 -1 0
2  23 -1 15 -1 0
2  16 -1 23 -1 15 -1 0
2  3 -1 16 -1 23 -1 15 -1 0
2  16 -1 0
2  3 -1 16 -1 0
Curve2ds 48
1 0 0 0 -1 
1 14000 0 0 -1 
1 11000 0 0 -1 
1 0 0 0 -1 
1 0 0 1 0 
1 0 0 -1 0 
1 0 -200 1 0 
1 0 0 -1 0 
1 0 0 0 -1 
1 11000 0 -0 -1 
1 0 0 1 0 
1 0 14000 -0 -1 
1 0 -200 1 0 
1 0 14000 -0 -1 
1 14000 0 0 -1 
1 0 0 -0 -1 
1 0 0 1 0 
1 -11000 0 0 1 
1 0 -200 1 0 
1 -11000 0 0 1 
1 -11000 14000 1 0 
1 0 0 1 0 
1 -5950 149.99999999999983 0 1 
1 0 0 1 0 
1 -5950 3900 -1 0 
1 0 0 1 0 
1 -10850 3899.9999999999995 0 -1 
1 0 0 1 0 
1 -10850 149.99999999999966 1 0 
1 0 0 1 0 
1 -11000 14000 1 0 
1 0 -200 1 0 
1 -5950 149.99999999999983 0 1 
1 0 -200 1 0 
1 -5950 3900 -1 0 
1 0 -200 1 0 
1 -10850 3899.9999999999995 0 -1 
1 0 -200 1 0 
1 -10850 149.99999999999966 1 0 
1 -0 -200 1 0 
1 0 0 0 -1 
1 4900 0 -0 -1 
1 3750 0 0 -1 
1 0 0 0 -1 
1 4900 0 0 -1 
1 0 0 0 -1 
1 3750 0 0 -1 
1 0 0 -0 -1 
Curves 24
1 -5 2000 6000 -0 0 -1 
1 10995 2000.0000000000002 6000 -0 0 -1 
1 0 0 0 1 0 0 
1 0 0 0 1 0 0 
1 -5.000000000000429 16000 6000 -0 0 -1 
1 0 14000 0 0 -1 0 
1 0 14000 0 0 -1 0 
1 10995 16000 6000 -0 0 -1 
1 11000 0 0 0 1 0 
1 11000 0 0 0 1 0 
1 11000 14000 0 -1 0 0 
1 0 -3750 0 0 1 0 
1 0 0 0 1 0 0 
1 4900 0 0 0 -1 0 
1 4900 -3750 0 -1 0 0 
1 11000 14000 0 -1 0 0 
1 0 -3750 0 0 1 0 
1 0 0 0 1 0 0 
1 4900 0 0 0 -1 0 
1 4900 -3750 0 -1 0 0 
1 5945 2150 6000 -0 0 -1 
1 5945 5900 6000 -0 0 -1 
1 10845 5900 6000 -0 0 -1 
1 10845 2150 6000 -0 0 -1 
Polygon3D 0
PolygonOnTriangulations 48
2 1 2 
p 4.20000006258487 1 0 200 
2 3 4 
p 4.20000006258487 1 0 200 
2 3 4 
p 4.20000006258487 1 0 200 
2 1 2 
p 4.20000006258487 1 0 200 
2 1 3 
p 4.20000006258487 1 0 11000 
2 1 2 
p 4.20000006258487 1 0 11000 
2 2 4 
p 4.20000006258487 1 0 11000 
2 1 2 
p 4.20000006258487 1 0 11000 
2 1 2 
p 4.20000006258487 1 0 200 
2 3 4 
p 4.20000006258487 1 0 200 
2 1 3 
p 4.20000006258487 1 0 14000 
2 3 1 
p 4.20000006258487 1 0 14000 
2 2 4 
p 4.20000006258487 1 0 14000 
2 3 1 
p 4.20000006258487 1 0 14000 
2 3 4 
p 4.20000006258487 1 0 200 
2 1 2 
p 4.20000006258487 1 0 200 
2 1 3 
p 4.20000006258487 1 0 14000 
2 2 4 
p 4.20000006258487 1 0 14000 
2 2 4 
p 4.20000006258487 1 0 14000 
2 2 4 
p 4.20000006258487 1 0 14000 
2 4 3 
p 4.20000006258487 1 0 11000 
2 1 3 
p 4.20000006258487 1 0 11000 
2 5 6 
p 4.20000006258487 1 0 3750 
2 1 3 
p 4.20000006258487 1 0 3750 
2 6 7 
p 4.20000006258487 1 0 4900 
2 1 3 
p 4.20000006258487 1 0 4900 
2 7 8 
p 4.20000006258487 1 0 3750 
2 1 3 
p 4.20000006258487 1 0 3750 
2 8 5 
p 4.20000006258487 1 0 4900 
2 1 3 
p 4.20000006258487 1 0 4900 
2 4 3 
p 4.20000006258487 1 0 11000 
2 2 4 
p 4.20000006258487 1 0 11000 
2 5 6 
p 4.20000006258487 1 0 3750 
2 2 4 
p 4.20000006258487 1 0 3750 
2 6 7 
p 4.20000006258487 1 0 4900 
2 2 4 
p 4.20000006258487 1 0 4900 
2 7 8 
p 4.20000006258487 1 0 3750 
2 2 4 
p 4.20000006258487 1 0 3750 
2 8 5 
p 4.20000006258487 1 0 4900 
2 2 4 
p 4.20000006258487 1 0 4900 
2 1 2 
p 4.20000006258487 1 0 200 
2 3 4 
p 4.20000006258487 1 0 200 
2 3 4 
p 4.20000006258487 1 0 200 
2 1 2 
p 4.20000006258487 1 0 200 
2 3 4 
p 4.20000006258487 1 0 200 
2 1 2 
p 4.20000006258487 1 0 200 
2 3 4 
p 4.20000006258487 1 0 200 
2 1 2 
p 4.20000006258487 1 0 200 
Surfaces 10
1 -5 2000 6000 3.0616169978600001e-17 -1 -0 1 3.0616169978600001e-17 0 0 -0 1 
1 -5.000000000000429 16000 6000 -1 -3.0616169978600001e-17 0 3.0616169978600001e-17 -1 0 0 0 1 
1 10995 2000.0000000000002 6000 1 3.0616169978600001e-17 0 -3.0616169978600001e-17 1 0 0 -0 1 
1 0 0 0 0 0 -1 -1 0 -0 0 1 0 
1 0 0 0 0 0 -1 -1 0 -0 0 1 0 
1 10995 16000 6000 -3.0616169978600001e-17 1 0 -1 -3.0616169978600001e-17 0 0 0 1 
1 5945 2150 6000 1 3.0616169978600001e-17 0 -3.0616169978600001e-17 1 0 0 -0 1 
1 5945 5900 6000 3.0616169978600001e-17 -1 -0 1 3.0616169978600001e-17 0 0 -0 1 
1 10845 5900 6000 -1 -3.0616169978600001e-17 0 3.0616169978600001e-17 -1 0 0 0 1 
1 10845 2150 6000 -3.0616169978600001e-17 1 0 -1 -3.0616169978600001e-17 0 0 0 1 
Triangulations 10
4 2 1 2.72848410531878e-12
-5 2000 6000 -5 2000 5800 10995 2000 6000 10995 2000 5800 0 0 0 -200 11000 0 11000 -200 4 1 2 3 1 4 
4 2 1 1.98951966012828e-13
-5.00000000000043 16000 6000 -5.00000000000043 16000 5800 -5 2000 6000 -5 2000 5800 0 0 0 -200 14000 0 14000 -200 3 1 2 3 2 4 
4 2 1 1.70530256582424e-13
10995 2000 6000 10995 2000 5800 10995 16000 6000 10995 16000 5800 0 0 0 -200 14000 0 14000 -200 3 1 2 3 2 4 
8 8 1 6.3664629124105e-12
-5 2000 6000 10995 2000 6000 -5.00000000000043 16000 6000 10995 16000 6000 5945 2150 6000 5945 5900 6000 10845 5900 6000 10845 2150 6000 0 0 -11000 0 0 14000 -11000 14000 -5950 150 -5950 3900 -10850 3900 -10850 150 7 2 8 5 8 2 1 6 5 4 7 6 3 6 1 3 4 6 2 1 5 4 2 7 
8 8 1 6.3664629124105e-12
-5 2000 5800 10995 2000 5800 -5.00000000000043 16000 5800 10995 16000 5800 5945 2150 5800 5945 5900 5800 10845 5900 5800 10845 2150 5800 0 0 -11000 0 0 14000 -11000 14000 -5950 150 -5950 3900 -10850 3900 -10850 150 7 2 8 5 8 2 1 6 5 4 7 6 3 6 1 3 4 6 2 1 5 4 2 7 
4 2 1 2.72848410531879e-11
10995 16000 6000 10995 16000 5800 -5.00000000000043 16000 6000 -5.00000000000043 16000 5800 0 0 0 -200 11000 0 11000 -200 4 1 2 3 1 4 
4 2 1 1.56319401867222e-13
5945 2150 6000 5945 2150 5800 5945 5900 6000 5945 5900 5800 0 0 0 -200 3750 0 3750 -200 3 1 2 3 2 4 
4 2 1 2.72848410531879e-12
5945 5900 6000 5945 5900 5800 10845 5900 6000 10845 5900 5800 0 0 0 -200 4900 0 4900 -200 4 1 2 3 1 4 
4 2 1 1.70530256582424e-13
10845 5900 6000 10845 5900 5800 10845 2150 6000 10845 2150 5800 0 0 0 -200 3750 0 3750 -200 3 1 2 3 2 4 
4 2 1 3.18323145620525e-12
10845 2150 6000 10845 2150 5800 5945 2150 6000 5945 2150 5800 0 0 0 -200 4900 0 4900 -200 4 1 2 3 1 4 

TShapes 66
Ve
1e-07
-4.99804690000019 2000.00021296613 5999.99996366
0 0

0101101
*
Ve
1e-07
-4.99804690000019 2000.00021296613 5799.99996366
0 0

0101101
*
Ed
 1e-07 1 1 0
1  1 0 0 200
2  1 1 0 0 200
2  2 2 0 0 200
6  1 1 0
6  2 2 0
0

0101000
+66 4 -65 4 *
Ve
1e-07
10995.0019531 2000.00021296613 5999.99996366
0 0

0101101
*
Ve
1e-07
10995.0019531 2000.00021296613 5799.99996366
0 0

0101101
*
Ed
 1e-07 1 1 0
1  2 0 0 200
2  3 1 0 0 200
2  4 3 0 0 200
6  3 1 0
6  4 3 0
0

0101000
+63 4 -62 4 *
Ed
 1e-07 1 1 0
1  3 0 0 11000
2  5 1 6 0 11000
2  6 4 0 0 11000
6  5 1 6
6  6 4 7
0

0101000
+66 8 -63 8 *
Ed
 1e-07 1 1 0
1  4 0 0 11000
2  7 1 11 0 11000
2  8 5 0 0 11000
6  7 1 11
6  8 5 12
0

0101000
+65 13 -62 13 *
Wi

0101000
+64 0 -61 0 -60 5 +59 10 *
Fa
0  1e-07 1 0
2  1
0101000
+58 0 *
Ve
1e-07
-4.99804690000062 16000.0002129661 5999.99996366
0 0

0101101
*
Ve
1e-07
-4.99804690000062 16000.0002129661 5799.99996366
0 0

0101101
*
Ed
 1e-07 1 1 0
1  5 0 0 200
2  9 2 0 0 200
2  10 6 0 0 200
6  9 2 0
6  10 6 0
0

0101000
+56 4 -55 4 *
Ed
 1e-07 1 1 0
1  6 0 0 14000
2  11 2 6 0 14000
2  12 4 0 0 14000
6  11 2 6
6  12 4 7
0

0101000
+56 8 -66 8 *
Ed
 1e-07 1 1 0
1  7 0 0 14000
2  13 2 11 0 14000
2  14 5 0 0 14000
6  13 2 11
6  14 5 12
0

0101000
+55 13 -65 13 *
Wi

0101000
+54 0 -64 0 -53 5 +52 10 *
Fa
0  1e-07 2 0
2  2
0101000
+51 0 *
Ve
1e-07
10995.0019531 16000.0002129661 5999.99996366
0 0

0101101
*
Ve
1e-07
10995.0019531 16000.0002129661 5799.99996366
0 0

0101101
*
Ed
 1e-07 1 1 0
1  8 0 0 200
2  15 3 0 0 200
2  16 6 0 0 200
6  15 3 0
6  16 6 0
0

0101000
+49 4 -48 4 *
Ed
 1e-07 1 1 0
1  9 0 0 14000
2  17 3 6 0 14000
2  18 4 0 0 14000
6  17 3 6
6  18 4 7
0

0101000
+63 8 -49 8 *
Ed
 1e-07 1 1 0
1  10 0 0 14000
2  19 3 11 0 14000
2  20 5 0 0 14000
6  19 3 11
6  20 5 12
0

0101000
+62 13 -48 13 *
Wi

0101000
+61 0 -47 0 -46 5 +45 10 *
Fa
0  1e-07 3 0
2  3
0101000
+44 0 *
Ed
 1e-07 1 1 0
1  11 0 0 11000
2  21 4 0 0 11000
2  22 6 6 0 11000
6  21 4 7
6  22 6 6
0

0101000
+49 8 -56 8 *
Wi

0101000
-60 14 -53 14 -46 14 -42 14 *
Ve
1e-07
5945.0019531 2150.00021296613 5999.99996366
0 0

0101101
*
Ve
1e-07
5945.0019531 5900.00021296613 5999.99996366
0 0

0101101
*
Ed
 1e-07 1 1 0
1  12 0 0 3750
2  23 4 18 0 3750
2  24 7 19 0 3750
6  23 4 20
6  24 7 20
0

0101000
+40 21 -39 21 *
Ve
1e-07
10845.0019531 5900.00021296613 5999.99996366
0 0

0101101
*
Ed
 1e-07 1 1 0
1  13 0 0 4900
2  25 4 18 0 4900
2  26 8 19 0 4900
6  25 4 20
6  26 8 20
0

0101000
+39 21 -37 21 *
Ve
1e-07
10845.0019531 2150.00021296613 5999.99996366
0 0

0101101
*
Ed
 1e-07 1 1 0
1  14 0 0 3750
2  27 4 18 0 3750
2  28 9 19 0 3750
6  27 4 20
6  28 9 20
0

0101000
+37 21 -35 21 *
Ed
 1e-07 1 1 0
1  15 0 0 4900
2  29 4 18 0 4900
2  30 10 19 0 4900
6  29 4 20
6  30 10 20
0

0101000
+35 21 -40 21 *
Wi

0101000
-38 17 -36 17 -34 17 -33 17 *
Fa
0  1e-07 4 14
2  4
0101000
+41 0 +32 0 *
Ed
 1e-07 1 1 0
1  16 0 0 11000
2  31 5 0 0 11000
2  32 6 11 0 11000
6  31 5 12
6  32 6 11
0

0101000
+48 13 -55 13 *
Wi

0101000
-59 22 -52 22 -45 22 -30 22 *
Ve
1e-07
5945.0019531 2150.00021296613 5799.99996366
0 0

0101101
*
Ve
1e-07
5945.0019531 5900.00021296613 5799.99996366
0 0

0101101
*
Ed
 1e-07 1 1 0
1  17 0 0 3750
2  33 5 25 0 3750
2  34 7 26 0 3750
6  33 5 27
6  34 7 27
0

0101000
+28 28 -27 28 *
Ve
1e-07
10845.0019531 5900.00021296613 5799.99996366
0 0

0101101
*
Ed
 1e-07 1 1 0
1  18 0 0 4900
2  35 5 25 0 4900
2  36 8 26 0 4900
6  35 5 27
6  36 8 27
0

0101000
+27 28 -25 28 *
Ve
1e-07
10845.0019531 2150.00021296613 5799.99996366
0 0

0101101
*
Ed
 1e-07 1 1 0
1  19 0 0 3750
2  37 5 25 0 3750
2  38 9 26 0 3750
6  37 5 27
6  38 9 27
0

0101000
+25 28 -23 28 *
Ed
 1e-07 1 1 0
1  20 0 0 4900
2  39 5 25 0 4900
2  40 10 26 0 4900
6  39 5 27
6  40 10 27
0

0101000
+23 28 -28 28 *
Wi

0101000
-26 24 -24 24 -22 24 -21 24 *
Fa
0  1e-07 5 22
2  5
0101000
+29 0 +20 0 *
Wi

0101000
+47 0 -54 0 -42 5 +30 10 *
Fa
0  1e-07 6 0
2  6
0101000
+18 0 *
Ed
 1e-07 1 1 0
1  21 0 0 200
2  41 7 0 0 200
2  42 10 0 0 200
6  41 7 29
6  42 10 29
0

0101000
+40 30 -28 30 *
Ed
 1e-07 1 1 0
1  22 0 0 200
2  43 7 0 0 200
2  44 8 0 0 200
6  43 7 29
6  44 8 29
0

0101000
+39 30 -27 30 *
Wi

0101000
+16 16 -38 17 +26 24 -15 16 *
Fa
0  1e-07 7 16
2  7
0101000
+14 0 *
Ed
 1e-07 1 1 0
1  23 0 0 200
2  45 8 0 0 200
2  46 9 0 0 200
6  45 8 29
6  46 9 29
0

0101000
+37 30 -25 30 *
Wi

0101000
+15 16 -36 17 +24 24 -12 16 *
Fa
0  1e-07 8 16
2  8
0101000
+11 0 *
Ed
 1e-07 1 1 0
1  24 0 0 200
2  47 9 0 0 200
2  48 10 0 0 200
6  47 9 29
6  48 10 29
0

0101000
+35 30 -23 30 *
Wi

0101000
+12 16 -34 17 +22 24 -9 16 *
Fa
0  1e-07 9 16
2  9
0101000
+8 0 *
Wi

0101000
+9 16 -33 17 +21 24 -16 16 *
Fa
0  1e-07 10 16
2  10
0101000
+6 0 *
Sh

0101100
+57 2 +50 2 +43 2 -31 0 +19 0 +17 2 +13 0 +10 0 +7 0 +5 0 
*
So

0100000
+4 0 *
Co

0100000
+3 0 *
Co

1100000
+2 1 *

+1 0 