  0
SECTION
  2
HEADER
  9
$ACADVER
  1
AC1009
  9
$DWGCODEPAGE
  3
ansi_1252
  9
$INSBASE
 10
0.0
 20
0.0
 30
0.0
  9
$EXTMIN
 10
0.0
 20
0.0
 30
0.0
  9
$EXTMAX
 10
0.0
 20
0.0
 30
0.0
  9
$LIMMIN
 10
0.0
 20
0.0
  9
$LIMMAX
 10
12.0
 20
9.0
  9
$ORTHOMODE
 70
     0
  9
$REGENMODE
 70
     1
  9
$FILLMODE
 70
     1
  9
$QTEXTMODE
 70
     0
  9
$MIRRTEXT
 70
     1
  9
$DRAGMODE
 70
     2
  9
$LTSCALE
 40
1.0
  9
$OSMODE
 70
  5119
  9
$ATTMODE
 70
     1
  9
$TEXTSIZE
 40
1.0
  9
$TRACEWID
 40
0.05
  9
$TEXTSTYLE
  7
STANDARD
  9
$CLAYER
  8
0
  9
$CELTYPE
  6
BYBLOCK
  9
$CECOLOR
 62
   256
  9
$DIMSCALE
 40
1.0
  9
$DIMASZ
 40
0.18
  9
$DIMEXO
 40
0.0625
  9
$DIMDLI
 40
0.38
  9
$DIMRND
 40
0.0
  9
$DIMDLE
 40
0.0
  9
$DIMEXE
 40
0.18
  9
$DIMTP
 40
0.0
  9
$DIMTM
 40
0.0
  9
$DIMTXT
 40
0.18
  9
$DIMCEN
 40
0.09
  9
$DIMTSZ
 40
0.0
  9
$DIMTOL
 70
     0
  9
$DIMLIM
 70
     0
  9
$DIMTIH
 70
     1
  9
$DIMTOH
 70
     1
  9
$DIMSE1
 70
     0
  9
$DIMSE2
 70
     0
  9
$DIMTAD
 70
     0
  9
$DIMZIN
 70
     0
  9
$DIMBLK
  1

  9
$DIMASO
 70
     1
  9
$DIMSHO
 70
     1
  9
$DIMPOST
  1

  9
$DIMAPOST
  1

  9
$DIMALT
 70
     0
  9
$DIMALTD
 70
     2
  9
$DIMALTF
 40
25.4
  9
$DIMLFAC
 40
1.0
  9
$DIMTOFL
 70
     0
  9
$DIMTVP
 40
0.0
  9
$DIMTIX
 70
     0
  9
$DIMSOXD
 70
     0
  9
$DIMSAH
 70
     0
  9
$DIMBLK1
  1

  9
$DIMBLK2
  1

  9
$DIMSTYLE
  2
STANDARD
  9
$DIMCLRD
 70
     0
  9
$DIMCLRE
 70
     0
  9
$DIMCLRT
 70
     0
  9
$DIMTFAC
 40
1.0
  9
$DIMGAP
 40
0.09
  9
$LUNITS
 70
     2
  9
$LUPREC
 70
     4
  9
$SKETCHINC
 40
0.1
  9
$FILLETRAD
 40
0.5
  9
$AUNITS
 70
     0
  9
$AUPREC
 70
     0
  9
$MENU
  1
.
  9
$ELEVATION
 40
0.0
  9
$PELEVATION
 40
0.0
  9
$THICKNESS
 40
0.0
  9
$LIMCHECK
 70
     0
  9
$CHAMFERA
 40
0.0
  9
$CHAMFERB
 40
0.0
  9
$SKPOLY
 70
     0
  9
$TDCREATE
 40
2457160.446782407
  9
$TDUPDATE
 40
2457160.596215278
  9
$TDINDWG
 40
0.0
  9
$TDUSRTIMER
 40
0.0
  9
$USRTIMER
 70
     1
  9
$ANGBASE
 50
0.0
  9
$ANGDIR
 70
     0
  9
$PDMODE
 70
     0
  9
$PDSIZE
 40
0.0
  9
$PLINEWID
 40
0.0
  9
$COORDS
 70
     1
  9
$SPLFRAME
 70
     0
  9
$SPLINETYPE
 70
     6
  9
$SPLINESEGS
 70
     8
  9
$ATTDIA
 70
     0
  9
$ATTREQ
 70
     1
  9
$HANDLING
 70
     1
  9
$HANDSEED
  5
149
  9
$SURFTAB1
 70
     6
  9
$SURFTAB2
 70
     6
  9
$SURFTYPE
 70
     6
  9
$SURFU
 70
     6
  9
$SURFV
 70
     6
  9
$UCSNAME
  2

  9
$UCSORG
 10
0.0
 20
0.0
 30
0.0
  9
$UCSXDIR
 10
1.0
 20
0.0
 30
0.0
  9
$UCSYDIR
 10
0.0
 20
1.0
 30
0.0
  9
$PUCSNAME
  2

  9
$PUCSORG
 10
0.0
 20
0.0
 30
0.0
  9
$PUCSXDIR
 10
1.0
 20
0.0
 30
0.0
  9
$PUCSYDIR
 10
0.0
 20
1.0
 30
0.0
  9
$USERI1
 70
     0
  9
$USERI2
 70
     0
  9
$USERI3
 70
     0
  9
$USERI4
 70
     0
  9
$USERI5
 70
     0
  9
$USERR1
 40
0.0
  9
$USERR2
 40
0.0
  9
$USERR3
 40
0.0
  9
$USERR4
 40
0.0
  9
$USERR5
 40
0.0
  9
$WORLDVIEW
 70
     1
  9
$SHADEDGE
 70
     3
  9
$SHADEDIF
 70
    70
  9
$TILEMODE
 70
     1
  9
$MAXACTVP
 70
    64
  9
$PLIMCHECK
 70
     0
  9
$PEXTMIN
 10
1.000000000000000E+20
 20
1.000000000000000E+20
 30
1.000000000000000E+20
  9
$PEXTMAX
 10
-1.000000000000000E+20
 20
-1.000000000000000E+20
 30
-1.000000000000000E+20
  9
$PLIMMIN
 10
0.0
 20
0.0
  9
$PLIMMAX
 10
0.0
 20
0.0
  9
$UNITMODE
 70
     0
  9
$VISRETAIN
 70
     1
  9
$PLINEGEN
 70
     0
  9
$PSLTSCALE
 70
     1
  0
ENDSEC
  0
SECTION
  2
TABLES
  0
TABLE
  2
VPORT
 70
     1
  0
VPORT
  2
*ACTIVE
 70
     0
 10
0.0
 20
0.0
 11
1.0
 21
1.0
 12
-79.36953167778142
 22
6.150010904683674
 13
0.0
 23
0.0
 14
0.5
 24
0.5
 15
0.5
 25
0.5
 16
0.0
 26
0.0
 36
1.0
 17
0.0
 27
0.0
 37
0.0
 40
17.57812500000001
 41
2.789144050104384
 42
50.0
 43
0.0
 44
0.0
 50
0.0
 51
0.0
 71
    16
 72
   100
 73
     1
 74
     3
 75
     0
 76
     0
 77
     0
 78
     0
  0
ENDTAB
  0
TABLE
  2
LTYPE
 70
     1
  0
LTYPE
  2
CONTINUOUS
 70
     0
  3
Solid line
 72
    65
 73
     0
 40
0.0
  0
ENDTAB
  0
TABLE
  2
LAYER
 70
     1
  0
LAYER
  2
0
 70
     0
 62
     7
  6
CONTINUOUS
  0
ENDTAB
  0
TABLE
  2
STYLE
 70
     1
  0
STYLE
  2
STANDARD
 70
     0
 40
0.0
 41
1.0
 50
0.0
 71
     0
 42
1.0
  3
ARIAL.TTF
  4

  0
ENDTAB
  0
TABLE
  2
VIEW
 70
     0
  0
ENDTAB
  0
TABLE
  2
UCS
 70
     0
  0
ENDTAB
  0
TABLE
  2
APPID
 70
     1
  0
APPID
  2
ACAD
 70
     0
  0
ENDTAB
  0
TABLE
  2
DIMSTYLE
 70
     1
  0
DIMSTYLE
  2
STANDARD
 70
     0
  3

  4

  5

  6

  7

 40
1.0
 41
0.18
 42
0.0625
 43
0.38
 44
0.18
 45
0.0
 46
0.0
 47
0.0
 48
0.0
140
0.18
141
0.09
142
0.0
143
25.4
144
1.0
145
0.0
146
1.0
147
0.09
 71
     0
 72
     0
 73
     1
 74
     1
 75
     0
 76
     0
 77
     0
 78
     0
170
     0
171
     2
172
     0
173
     0
174
     0
175
     0
176
     0
177
     0
178
     0
  0
ENDTAB
  0
ENDSEC
  0
SECTION
  2
BLOCKS
  0
BLOCK
  8
0
  2
$MODEL_SPACE
 70
     0
 10
0.0
 20
0.0
 30
0.0
  3
$MODEL_SPACE
  1

  0
ENDBLK
  5
126
  8
0
  0
BLOCK
 67
     1
  8
0
  2
$PAPER_SPACE
 70
     0
 10
0.0
 20
0.0
 30
0.0
  3
$PAPER_SPACE
  1

  0
ENDBLK
  5
128
 67
     1
  8
0
  0
BLOCK
  8
0
  2
SHAPE2DVIEW
 70
     0
 10
0.0
 20
0.0
 30
0.0
  3
SHAPE2DVIEW
  1

  0
LINE
  5
2A
  8
0
 62
     0
 10
-85.8999996185
 20
2.11646699905
 30
0.0
 11
-85.8999996185
 21
5.26646709442
 31
0.0
  0
LINE
  5
2B
  8
0
 62
     0
 10
-89.4499969482
 20
2.11646699905
 30
0.0
 11
-85.8999996185
 21
2.11646699905
 31
0.0
  0
LINE
  5
2C
  8
0
 62
     0
 10
-85.8999996185
 20
2.11646699905
 30
0.0
 11
-89.4499969482
 21
2.11646699905
 31
0.0
  0
LINE
  5
2D
  8
0
 62
     0
 10
-85.8999996185
 20
5.26646709442
 30
0.0
 11
-85.4799995422
 21
5.26646709442
 31
0.0
  0
LINE
  5
2E
  8
0
 62
     0
 10
-89.4499969482
 20
5.26646709442
 30
0.0
 11
-86.0499992371
 21
5.26646709442
 31
0.0
  0
LINE
  5
2F
  8
0
 62
     0
 10
-85.4799995422
 20
5.26646709442
 30
0.0
 11
-85.8999996185
 21
5.26646709442
 31
0.0
  0
LINE
  5
30
  8
0
 62
     0
 10
-86.0499992371
 20
5.26646709442
 30
0.0
 11
-86.0499992371
 21
2.26646709442
 31
0.0
  0
LINE
  5
31
  8
0
 62
     0
 10
-86.0499992371
 20
2.26646709442
 30
0.0
 11
-89.4499969482
 21
2.26646709442
 31
0.0
  0
LINE
  5
32
  8
0
 62
     0
 10
-89.5999984741
 20
5.41646718979
 30
0.0
 11
-89.5999984741
 21
4.36646699905
 31
0.0
  0
LINE
  5
33
  8
0
 62
     0
 10
-89.5999984741
 20
4.36646699905
 30
0.0
 11
-89.5999984741
 21
3.31646704674
 31
0.0
  0
LINE
  5
34
  8
0
 62
     0
 10
-89.5999984741
 20
3.31646704674
 30
0.0
 11
-89.5999984741
 21
2.26646709442
 31
0.0
  0
LINE
  5
35
  8
0
 62
     0
 10
-89.5999984741
 20
2.26646709442
 30
0.0
 11
-89.5999984741
 21
0.766466975212
 31
0.0
  0
LINE
  5
36
  8
0
 62
     0
 10
-89.5999984741
 20
0.766466975212
 30
0.0
 11
-89.5999984741
 21
-0.266799986362
 31
0.0
  0
LINE
  5
37
  8
0
 62
     0
 10
-89.5999984741
 20
-0.266799986362
 30
0.0
 11
-89.5999984741
 21
-1.30006599426
 31
0.0
  0
LINE
  5
38
  8
0
 62
     0
 10
-89.5999984741
 20
-1.30006599426
 30
0.0
 11
-89.5999984741
 21
-2.33333301544
 31
0.0
  0
LINE
  5
39
  8
0
 62
     0
 10
-89.5999984741
 20
-2.33333301544
 30
0.0
 11
-89.5999984741
 21
-3.38888907433
 31
0.0
  0
LINE
  5
3A
  8
0
 62
     0
 10
-89.5999984741
 20
-3.38888907433
 30
0.0
 11
-89.5999984741
 21
-4.44444513321
 31
0.0
  0
LINE
  5
3B
  8
0
 62
     0
 10
-89.5999984741
 20
-4.44444513321
 30
0.0
 11
-89.5999984741
 21
-5.5
 31
0.0
  0
LINE
  5
3C
  8
0
 62
     0
 10
-89.5999984741
 20
-5.5
 30
0.0
 11
-86.0500011444
 21
-5.5
 31
0.0
  0
LINE
  5
3D
  8
0
 62
     0
 10
-85.4799995422
 20
5.41646718979
 30
0.0
 11
-86.0499992371
 21
5.41646718979
 31
0.0
  0
LINE
  5
3E
  8
0
 62
     0
 10
-86.0499992371
 20
5.41646718979
 30
0.0
 11
-89.5999984741
 21
5.41646718979
 31
0.0
  0
LINE
  5
3F
  8
0
 62
     0
 10
-86.0500011444
 20
-5.34999990463
 30
0.0
 11
-86.0500011444
 21
-5.5
 31
0.0
  0
LINE
  5
40
  8
0
 62
     0
 10
-86.0500011444
 20
-5.34999990463
 30
0.0
 11
-89.4499969482
 21
-5.34999990463
 31
0.0
  0
LINE
  5
41
  8
0
 62
     0
 10
-85.4799995422
 20
5.41646718979
 30
0.0
 11
-85.4799995422
 21
5.26646709442
 31
0.0
  0
LINE
  5
42
  8
0
 62
     0
 10
-89.4499969482
 20
-5.34999990463
 30
0.0
 11
-89.4499969482
 21
-4.44444513321
 31
0.0
  0
LINE
  5
43
  8
0
 62
     0
 10
-89.4499969482
 20
-4.44444513321
 30
0.0
 11
-89.4499969482
 21
-3.38888907433
 31
0.0
  0
LINE
  5
44
  8
0
 62
     0
 10
-89.4499969482
 20
-3.38888907433
 30
0.0
 11
-89.4499969482
 21
-2.48333311081
 31
0.0
  0
LINE
  5
45
  8
0
 62
     0
 10
-89.4499969482
 20
-2.33333301544
 30
0.0
 11
-89.4499969482
 21
-2.48333311081
 31
0.0
  0
LINE
  5
46
  8
0
 62
     0
 10
-89.4499969482
 20
-2.33333301544
 30
0.0
 11
-89.4499969482
 21
-1.30006599426
 31
0.0
  0
LINE
  5
47
  8
0
 62
     0
 10
-89.4499969482
 20
-1.30006599426
 30
0.0
 11
-89.4499969482
 21
-0.266799986362
 31
0.0
  0
LINE
  5
48
  8
0
 62
     0
 10
-89.4499969482
 20
-0.266799986362
 30
0.0
 11
-89.4499969482
 21
0.616466999054
 31
0.0
  0
LINE
  5
49
  8
0
 62
     0
 10
-89.4499969482
 20
0.766466975212
 30
0.0
 11
-89.4499969482
 21
0.616466999054
 31
0.0
  0
LINE
  5
4A
  8
0
 62
     0
 10
-89.4499969482
 20
0.766466975212
 30
0.0
 11
-89.4499969482
 21
2.26646709442
 31
0.0
  0
LINE
  5
4B
  8
0
 62
     0
 10
-89.4499969482
 20
2.26646709442
 30
0.0
 11
-89.4499969482
 21
3.31646704674
 31
0.0
  0
LINE
  5
4C
  8
0
 62
     0
 10
-89.4499969482
 20
3.31646704674
 30
0.0
 11
-89.4499969482
 21
4.36646699905
 31
0.0
  0
LINE
  5
4D
  8
0
 62
     0
 10
-89.4499969482
 20
4.36646699905
 30
0.0
 11
-89.4499969482
 21
5.26646709442
 31
0.0
  0
LINE
  5
4E
  8
0
 62
     0
 10
-89.4499969482
 20
2.26646709442
 30
0.0
 11
-89.4499969482
 21
2.11646699905
 31
0.0
  0
LINE
  5
4F
  8
0
 62
     0
 10
-89.4499969482
 20
-2.48333311081
 30
0.0
 11
-86.2000007629
 21
-2.48333311081
 31
0.0
  0
LINE
  5
50
  8
0
 62
     0
 10
-86.2000007629
 20
-2.48333311081
 30
0.0
 11
-86.2000007629
 21
-4.5
 31
0.0
  0
LINE
  5
51
  8
0
 62
     0
 10
-86.0499992371
 20
-2.33333301544
 30
0.0
 11
-89.4499969482
 21
-2.33333301544
 31
0.0
  0
LINE
  5
52
  8
0
 62
     0
 10
-86.0499992371
 20
-2.33333301544
 30
0.0
 11
-86.0499992371
 21
-4.5
 31
0.0
  0
LINE
  5
53
  8
0
 62
     0
 10
-86.0499992371
 20
-4.5
 30
0.0
 11
-86.0499992371
 21
-2.33333301544
 31
0.0
  0
LINE
  5
54
  8
0
 62
     0
 10
-86.0499992371
 20
-4.5
 30
0.0
 11
-86.2000007629
 21
-4.5
 31
0.0
  0
LINE
  5
55
  8
0
 62
     0
 10
-89.4499969482
 20
-2.48333311081
 30
0.0
 11
-89.4499969482
 21
-2.33333301544
 31
0.0
  0
LINE
  5
56
  8
0
 62
     0
 10
-89.4499969482
 20
0.616466999054
 30
0.0
 11
-86.2000007629
 21
0.616466999054
 31
0.0
  0
LINE
  5
57
  8
0
 62
     0
 10
-86.2000007629
 20
0.616466999054
 30
0.0
 11
-86.2000007629
 21
-1.33333301544
 31
0.0
  0
LINE
  5
58
  8
0
 62
     0
 10
-86.0499992371
 20
-1.33333301544
 30
0.0
 11
-86.2000007629
 21
-1.33333301544
 31
0.0
  0
LINE
  5
59
  8
0
 62
     0
 10
-86.0499992371
 20
0.766466975212
 30
0.0
 11
-89.4499969482
 21
0.766466975212
 31
0.0
  0
LINE
  5
5A
  8
0
 62
     0
 10
-86.0499992371
 20
-1.33333301544
 30
0.0
 11
-86.0499992371
 21
0.766466975212
 31
0.0
  0
LINE
  5
5B
  8
0
 62
     0
 10
-86.0499992371
 20
0.766466975212
 30
0.0
 11
-86.0499992371
 21
-1.33333301544
 31
0.0
  0
LINE
  5
5C
  8
0
 62
     0
 10
-89.4499988556
 20
10.1499996185
 30
0.0
 11
-80.1500005722
 21
10.1499996185
 31
0.0
  0
LINE
  5
5D
  8
0
 62
     0
 10
-89.4499988556
 20
7.30000019073
 30
0.0
 11
-89.4499988556
 21
10.1499996185
 31
0.0
  0
LINE
  5
5E
  8
0
 62
     0
 10
-80.1500005722
 20
10.1499996185
 30
0.0
 11
-80.1500005722
 21
5.41646718979
 31
0.0
  0
LINE
  5
5F
  8
0
 62
     0
 10
-80.0
 20
-1.08353304863
 30
0.0
 11
-80.0
 21
-3.08353304863
 31
0.0
  0
LINE
  5
60
  8
0
 62
     0
 10
-80.0
 20
5.41646718979
 30
0.0
 11
-80.0
 21
0.416467010975
 31
0.0
  0
LINE
  5
61
  8
0
 62
     0
 10
-80.0
 20
0.416467010975
 30
0.0
 11
-80.0
 21
-1.08353304863
 31
0.0
  0
LINE
  5
62
  8
0
 62
     0
 10
-80.1500005722
 20
-3.08353304863
 30
0.0
 11
-80.0
 21
-3.08353304863
 31
0.0
  0
LINE
  5
63
  8
0
 62
     0
 10
-83.2000007629
 20
5.41646718979
 30
0.0
 11
-80.1500005722
 21
5.41646718979
 31
0.0
  0
LINE
  5
64
  8
0
 62
     0
 10
-83.7700004578
 20
5.41646718979
 30
0.0
 11
-83.2000007629
 21
5.41646718979
 31
0.0
  0
LINE
  5
65
  8
0
 62
     0
 10
-83.7700004578
 20
5.41646718979
 30
0.0
 11
-83.7700004578
 21
5.26646709442
 31
0.0
  0
LINE
  5
66
  8
0
 62
     0
 10
-83.2000007629
 20
5.26646709442
 30
0.0
 11
-83.7700004578
 21
5.26646709442
 31
0.0
  0
LINE
  5
67
  8
0
 62
     0
 10
-80.1500005722
 20
5.26646709442
 30
0.0
 11
-83.2000007629
 21
5.26646709442
 31
0.0
  0
LINE
  5
68
  8
0
 62
     0
 10
-80.1500005722
 20
0.416467010975
 30
0.0
 11
-80.1500005722
 21
5.26646709442
 31
0.0
  0
LINE
  5
69
  8
0
 62
     0
 10
-80.1500005722
 20
-1.08353304863
 30
0.0
 11
-80.1500005722
 21
0.416467010975
 31
0.0
  0
LINE
  5
6A
  8
0
 62
     0
 10
-80.1500005722
 20
-3.08353304863
 30
0.0
 11
-80.1500005722
 21
-1.08353304863
 31
0.0
  0
LINE
  5
6B
  8
0
 62
     0
 10
-80.0
 20
5.41646718979
 30
0.0
 11
-80.0
 21
10.2999992371
 31
0.0
  0
LINE
  5
6C
  8
0
 62
     0
 10
-80.0
 20
10.2999992371
 30
0.0
 11
-89.5999984741
 21
10.2999992371
 31
0.0
  0
LINE
  5
6D
  8
0
 62
     0
 10
-89.5999984741
 20
10.2999992371
 30
0.0
 11
-89.5999984741
 21
7.30000019073
 31
0.0
  0
LINE
  5
6E
  8
0
 62
     0
 10
-80.0
 20
5.41646718979
 30
0.0
 11
-80.1500005722
 21
5.41646718979
 31
0.0
  0
LINE
  5
6F
  8
0
 62
     0
 10
-89.4499988556
 20
7.30000019073
 30
0.0
 11
-89.5999984741
 21
7.30000019073
 31
0.0
  0
LINE
  5
70
  8
0
 62
     0
 10
-85.9000015259
 20
-2.33333301544
 30
0.0
 11
-85.9000015259
 21
2.11646699905
 31
0.0
  0
LINE
  5
71
  8
0
 62
     0
 10
-86.0500011444
 20
2.41646695137
 30
0.0
 11
-86.0499992371
 21
2.41646695137
 31
0.0
  0
LINE
  5
72
  8
0
 62
     0
 10
-85.9000015259
 20
-2.33333301544
 30
0.0
 11
-86.0499992371
 21
-2.33333301544
 31
0.0
  0
LINE
  5
73
  8
0
 62
     0
 10
-86.0500011444
 20
2.41646695137
 30
0.0
 11
-86.0500011444
 21
2.26646709442
 31
0.0
  0
LINE
  5
74
  8
0
 62
     0
 10
-86.0500011444
 20
2.11646699905
 30
0.0
 11
-86.0500011444
 21
0.766466975212
 31
0.0
  0
LINE
  5
75
  8
0
 62
     0
 10
-86.0500011444
 20
-1.33333301544
 30
0.0
 11
-86.0500011444
 21
-2.33333301544
 31
0.0
  0
LINE
  5
76
  8
0
 62
     0
 10
-86.0500011444
 20
3.41646695137
 30
0.0
 11
-86.0500011444
 21
5.26646709442
 31
0.0
  0
LINE
  5
77
  8
0
 62
     0
 10
-84.5500011444
 20
3.41646695137
 30
0.0
 11
-85.8999996185
 21
3.41646695137
 31
0.0
  0
LINE
  5
78
  8
0
 62
     0
 10
-86.0499992371
 20
3.41646695137
 30
0.0
 11
-86.0500011444
 21
3.41646695137
 31
0.0
  0
LINE
  5
79
  8
0
 62
     0
 10
-86.0500011444
 20
5.26646709442
 30
0.0
 11
-86.0499992371
 21
5.26646709442
 31
0.0
  0
LINE
  5
7A
  8
0
 62
     0
 10
-85.8999996185
 20
3.56646704674
 30
0.0
 11
-84.5500011444
 21
3.56646704674
 31
0.0
  0
LINE
  5
7B
  8
0
 62
     0
 10
-84.5500011444
 20
3.56646704674
 30
0.0
 11
-84.5500011444
 21
3.41646695137
 31
0.0
  0
LINE
  5
7C
  8
0
 62
     0
 10
-85.9000015259
 20
-5.34999990463
 30
0.0
 11
-85.9000015259
 21
-7.34999990463
 31
0.0
  0
LINE
  5
7D
  8
0
 62
     0
 10
-85.9000015259
 20
-7.34999990463
 30
0.0
 11
-86.0500011444
 21
-7.34999990463
 31
0.0
  0
LINE
  5
7E
  8
0
 62
     0
 10
-86.0500011444
 20
-7.34999990463
 30
0.0
 11
-86.0500011444
 21
-5.5
 31
0.0
  0
LINE
  5
7F
  8
0
 62
     0
 10
-86.0500011444
 20
-5.34999990463
 30
0.0
 11
-85.9000015259
 21
-5.34999990463
 31
0.0
  0
LINE
  5
80
  8
0
 62
     0
 10
-82.0333337784
 20
-7.34999990463
 30
0.0
 11
-83.0500001907
 21
-7.34999990463
 31
0.0
  0
LINE
  5
81
  8
0
 62
     0
 10
-80.0000009537
 20
-7.34999990463
 30
0.0
 11
-81.016667366
 21
-7.34999990463
 31
0.0
  0
LINE
  5
82
  8
0
 62
     0
 10
-83.0500001907
 20
-7.5
 30
0.0
 11
-83.0500001907
 21
-7.34999990463
 31
0.0
  0
LINE
  5
83
  8
0
 62
     0
 10
-82.0333337784
 20
-7.34999990463
 30
0.0
 11
-82.0333337784
 21
-7.5
 31
0.0
  0
LINE
  5
84
  8
0
 62
     0
 10
-83.0500001907
 20
-7.5
 30
0.0
 11
-82.0333337784
 21
-7.5
 31
0.0
  0
LINE
  5
85
  8
0
 62
     0
 10
-81.016667366
 20
-7.5
 30
0.0
 11
-81.016667366
 21
-7.34999990463
 31
0.0
  0
LINE
  5
86
  8
0
 62
     0
 10
-80.0000009537
 20
-7.34999990463
 30
0.0
 11
-80.0000009537
 21
-7.5
 31
0.0
  0
LINE
  5
87
  8
0
 62
     0
 10
-81.016667366
 20
-7.5
 30
0.0
 11
-80.0000009537
 21
-7.5
 31
0.0
  0
LINE
  5
88
  8
0
 62
     0
 10
-84.4000015259
 20
3.41646695137
 30
0.0
 11
-84.4000015259
 21
5.26646709442
 31
0.0
  0
LINE
  5
89
  8
0
 62
     0
 10
-84.5500011444
 20
3.41646695137
 30
0.0
 11
-84.4000015259
 21
3.41646695137
 31
0.0
  0
LINE
  5
8A
  8
0
 62
     0
 10
-84.5500011444
 20
5.26646709442
 30
0.0
 11
-84.5500011444
 21
3.41646695137
 31
0.0
  0
LINE
  5
8B
  8
0
 62
     0
 10
-84.4000015259
 20
5.26646709442
 30
0.0
 11
-84.5500011444
 21
5.26646709442
 31
0.0
  0
LINE
  5
8C
  8
0
 62
     0
 10
-97.5999984741
 20
12.3000001907
 30
0.0
 11
-77.9999990463
 21
12.3000001907
 31
0.0
  0
LINE
  5
8D
  8
0
 62
     0
 10
-77.9999990463
 20
-12.5
 30
0.0
 11
-77.9999990463
 21
12.3000001907
 31
0.0
  0
LINE
  5
8E
  8
0
 62
     0
 10
-97.5999984741
 20
12.3000001907
 30
0.0
 11
-97.5999984741
 21
-12.5
 31
0.0
  0
LINE
  5
8F
  8
0
 62
     0
 10
-97.5999984741
 20
-12.5
 30
0.0
 11
-97.7999992371
 21
-12.5
 31
0.0
  0
LINE
  5
90
  8
0
 62
     0
 10
-97.7999992371
 20
-12.5
 30
0.0
 11
-97.7999992371
 21
12.5
 31
0.0
  0
LINE
  5
91
  8
0
 62
     0
 10
-77.7999992371
 20
12.5
 30
0.0
 11
-97.7999992371
 21
12.5
 31
0.0
  0
LINE
  5
92
  8
0
 62
     0
 10
-77.7999992371
 20
12.5
 30
0.0
 11
-77.7999992371
 21
-12.5
 31
0.0
  0
LINE
  5
93
  8
0
 62
     0
 10
-77.7999992371
 20
-12.5
 30
0.0
 11
-77.9999990463
 21
-12.5
 31
0.0
  0
LINE
  5
94
  8
0
 62
     0
 10
-89.4499969482
 20
-1.30006599426
 30
0.0
 11
-89.4499969482
 21
-2.33333301544
 31
0.0
  0
LINE
  5
95
  8
0
 62
     0
 10
-89.4499969482
 20
-2.48333311081
 30
0.0
 11
-89.4499969482
 21
-3.38888907433
 31
0.0
  0
LINE
  5
96
  8
0
 62
     0
 10
-89.4499969482
 20
-4.44444513321
 30
0.0
 11
-89.4499969482
 21
-5.34999990463
 31
0.0
  0
LINE
  5
97
  8
0
 62
     0
 10
-89.4499969482
 20
-5.34999990463
 30
0.0
 11
-88.8899974823
 21
-5.34999990463
 31
0.0
  0
LINE
  5
98
  8
0
 62
     0
 10
-89.4499969482
 20
2.81583189964
 30
0.0
 11
-89.4499969482
 21
2.26646709442
 31
0.0
  0
LINE
  5
99
  8
0
 62
     0
 10
-89.4499969482
 20
2.11646699905
 30
0.0
 11
-89.4499969482
 21
2.07279205322
 31
0.0
  0
LINE
  5
9A
  8
0
 62
     0
 10
-89.4499969482
 20
5.26646709442
 30
0.0
 11
-89.4499969482
 21
4.6734290123
 31
0.0
  0
LINE
  5
9B
  8
0
 62
     0
 10
-84.4000015259
 20
5.26646709442
 30
0.0
 11
-85.4799995422
 21
5.26646709442
 31
0.0
  0
LINE
  5
9C
  8
0
 62
     0
 10
-85.4799995422
 20
5.41646718979
 30
0.0
 11
-84.4000015259
 21
5.41646718979
 31
0.0
  0
LINE
  5
9D
  8
0
 62
     0
 10
-84.4000015259
 20
5.41646718979
 30
0.0
 11
-84.4000015259
 21
5.26646709442
 31
0.0
  0
LINE
  5
9E
  8
0
 62
     0
 10
-80.1500005722
 20
5.26646709442
 30
0.0
 11
-83.4000015259
 21
5.26646709442
 31
0.0
  0
LINE
  5
9F
  8
0
 62
     0
 10
-80.0
 20
5.41646718979
 30
0.0
 11
-79.9999990463
 21
5.41646718979
 31
0.0
  0
LINE
  5
A0
  8
0
 62
     0
 10
-79.9999990463
 20
5.41646718979
 30
0.0
 11
-79.9999990463
 21
4.41646718979
 31
0.0
  0
LINE
  5
A1
  8
0
 62
     0
 10
-79.9999990463
 20
4.41646718979
 30
0.0
 11
-80.0
 21
4.41646718979
 31
0.0
  0
LINE
  5
A2
  8
0
 62
     0
 10
-79.9999990463
 20
2.41646695137
 30
0.0
 11
-80.0
 21
2.41646695137
 31
0.0
  0
LINE
  5
A3
  8
0
 62
     0
 10
-79.9999990463
 20
3.41646695137
 30
0.0
 11
-79.9999990463
 21
2.41646695137
 31
0.0
  0
LINE
  5
A4
  8
0
 62
     0
 10
-80.0
 20
3.41646695137
 30
0.0
 11
-79.9999990463
 21
3.41646695137
 31
0.0
  0
LINE
  5
A5
  8
0
 62
     0
 10
-83.2000007629
 20
-7.34999990463
 30
0.0
 11
-83.2000007629
 21
-5.5
 31
0.0
  0
LINE
  5
A6
  8
0
 62
     0
 10
-84.0500011444
 20
-7.34999990463
 30
0.0
 11
-83.2000007629
 21
-7.34999990463
 31
0.0
  0
LINE
  5
A7
  8
0
 62
     0
 10
-86.0500011444
 20
-7.34999990463
 30
0.0
 11
-85.0500011444
 21
-7.34999990463
 31
0.0
  0
LINE
  5
A8
  8
0
 62
     0
 10
-83.2000007629
 20
-5.5
 30
0.0
 11
-83.0500011444
 21
-5.5
 31
0.0
  0
LINE
  5
A9
  8
0
 62
     0
 10
-83.0500011444
 20
-5.5
 30
0.0
 11
-83.0500011444
 21
-7.5
 31
0.0
  0
LINE
  5
AA
  8
0
 62
     0
 10
-83.0500011444
 20
-7.5
 30
0.0
 11
-84.0500011444
 21
-7.5
 31
0.0
  0
LINE
  5
AB
  8
0
 62
     0
 10
-84.0500011444
 20
-7.5
 30
0.0
 11
-84.0500011444
 21
-7.34999990463
 31
0.0
  0
LINE
  5
AC
  8
0
 62
     0
 10
-86.0500011444
 20
-7.5
 30
0.0
 11
-86.0500011444
 21
-7.34999990463
 31
0.0
  0
LINE
  5
AD
  8
0
 62
     0
 10
-85.0500011444
 20
-7.34999990463
 30
0.0
 11
-85.0500011444
 21
-7.5
 31
0.0
  0
LINE
  5
AE
  8
0
 62
     0
 10
-85.0500011444
 20
-7.5
 30
0.0
 11
-86.0500011444
 21
-7.5
 31
0.0
  0
LINE
  5
AF
  8
0
 62
     0
 10
-83.2000007629
 20
0.460667014122
 30
0.0
 11
-83.2000007629
 21
0.181266993284
 31
0.0
  0
LINE
  5
B0
  8
0
 62
     0
 10
-83.2000007629
 20
0.181266993284
 30
0.0
 11
-84.3999996185
 21
0.181266993284
 31
0.0
  0
LINE
  5
B1
  8
0
 62
     0
 10
-84.3999996185
 20
0.181266993284
 30
0.0
 11
-84.3999996185
 21
0.460667014122
 31
0.0
  0
LINE
  5
B2
  8
0
 62
     0
 10
-83.2000007629
 20
0.740067005157
 30
0.0
 11
-83.2000007629
 21
0.460667014122
 31
0.0
  0
LINE
  5
B3
  8
0
 62
     0
 10
-83.2000007629
 20
0.460667014122
 30
0.0
 11
-84.3999996185
 21
0.460667014122
 31
0.0
  0
LINE
  5
B4
  8
0
 62
     0
 10
-84.3999996185
 20
0.460667014122
 30
0.0
 11
-84.4000015259
 21
0.740067005157
 31
0.0
  0
LINE
  5
B5
  8
0
 62
     0
 10
-83.2000007629
 20
1.01946699619
 30
0.0
 11
-83.2000007629
 21
0.740067005157
 31
0.0
  0
LINE
  5
B6
  8
0
 62
     0
 10
-83.2000007629
 20
0.740067005157
 30
0.0
 11
-84.4000015259
 21
0.740067005157
 31
0.0
  0
LINE
  5
B7
  8
0
 62
     0
 10
-84.4000015259
 20
0.740067005157
 30
0.0
 11
-84.4000015259
 21
1.01946699619
 31
0.0
  0
LINE
  5
B8
  8
0
 62
     0
 10
-83.2000007629
 20
1.29886698723
 30
0.0
 11
-83.2000007629
 21
1.01946699619
 31
0.0
  0
LINE
  5
B9
  8
0
 62
     0
 10
-83.2000007629
 20
1.01946699619
 30
0.0
 11
-84.4000015259
 21
1.01946699619
 31
0.0
  0
LINE
  5
BA
  8
0
 62
     0
 10
-84.4000015259
 20
1.01946699619
 30
0.0
 11
-84.4000015259
 21
1.29886698723
 31
0.0
  0
LINE
  5
BB
  8
0
 62
     0
 10
-83.2000007629
 20
1.57826697826
 30
0.0
 11
-83.2000007629
 21
1.29886698723
 31
0.0
  0
LINE
  5
BC
  8
0
 62
     0
 10
-83.2000007629
 20
1.29886698723
 30
0.0
 11
-84.4000015259
 21
1.29886698723
 31
0.0
  0
LINE
  5
BD
  8
0
 62
     0
 10
-84.4000015259
 20
1.29886698723
 30
0.0
 11
-84.4000015259
 21
1.57826697826
 31
0.0
  0
LINE
  5
BE
  8
0
 62
     0
 10
-83.2000007629
 20
1.8576669693
 30
0.0
 11
-83.2000007629
 21
1.57826697826
 31
0.0
  0
LINE
  5
BF
  8
0
 62
     0
 10
-83.2000007629
 20
1.57826697826
 30
0.0
 11
-84.4000015259
 21
1.57826697826
 31
0.0
  0
LINE
  5
C0
  8
0
 62
     0
 10
-84.4000015259
 20
1.57826697826
 30
0.0
 11
-84.4000015259
 21
1.8576669693
 31
0.0
  0
LINE
  5
C1
  8
0
 62
     0
 10
-83.2000007629
 20
2.13706707954
 30
0.0
 11
-83.2000007629
 21
1.8576669693
 31
0.0
  0
LINE
  5
C2
  8
0
 62
     0
 10
-83.2000007629
 20
1.8576669693
 30
0.0
 11
-84.4000015259
 21
1.8576669693
 31
0.0
  0
LINE
  5
C3
  8
0
 62
     0
 10
-84.4000015259
 20
1.8576669693
 30
0.0
 11
-84.4000015259
 21
2.13706707954
 31
0.0
  0
LINE
  5
C4
  8
0
 62
     0
 10
-83.2000007629
 20
2.41646695137
 30
0.0
 11
-83.2000007629
 21
2.13706707954
 31
0.0
  0
LINE
  5
C5
  8
0
 62
     0
 10
-84.4000015259
 20
2.41646695137
 30
0.0
 11
-83.2000007629
 21
2.41646695137
 31
0.0
  0
LINE
  5
C6
  8
0
 62
     0
 10
-83.2000007629
 20
2.13706707954
 30
0.0
 11
-84.4000015259
 21
2.13706707954
 31
0.0
  0
LINE
  5
C7
  8
0
 62
     0
 10
-84.4000015259
 20
2.13706707954
 30
0.0
 11
-84.4000015259
 21
2.41646695137
 31
0.0
  0
LINE
  5
C8
  8
0
 62
     0
 10
-83.0500001907
 20
0.566466987133
 30
0.0
 11
-83.0500001907
 21
2.41646695137
 31
0.0
  0
LINE
  5
C9
  8
0
 62
     0
 10
-83.0500001907
 20
0.566466987133
 30
0.0
 11
-80.1500015259
 21
0.566466987133
 31
0.0
  0
LINE
  5
CA
  8
0
 62
     0
 10
-80.1500015259
 20
1.08313298225
 30
0.0
 11
-80.1500015259
 21
0.566466987133
 31
0.0
  0
LINE
  5
CB
  8
0
 62
     0
 10
-80.1500015259
 20
1.08313298225
 30
0.0
 11
-80.1500005722
 21
1.08313298225
 31
0.0
  0
LINE
  5
CC
  8
0
 62
     0
 10
-83.1999998093
 20
0.416467010975
 30
0.0
 11
-80.1500005722
 21
0.416467010975
 31
0.0
  0
LINE
  5
CD
  8
0
 62
     0
 10
-83.1999998093
 20
2.41646695137
 30
0.0
 11
-83.1999998093
 21
0.416467010975
 31
0.0
  0
LINE
  5
CE
  8
0
 62
     0
 10
-83.1999998093
 20
2.41646695137
 30
0.0
 11
-83.0500001907
 21
2.41646695137
 31
0.0
  0
LINE
  5
CF
  8
0
 62
     0
 10
-80.1500015259
 20
2.26646709442
 30
0.0
 11
-80.1500015259
 21
1.74979996681
 31
0.0
  0
LINE
  5
D0
  8
0
 62
     0
 10
-82.1999998093
 20
2.26646709442
 30
0.0
 11
-80.1500015259
 21
2.26646709442
 31
0.0
  0
LINE
  5
D1
  8
0
 62
     0
 10
-82.1999998093
 20
2.26646709442
 30
0.0
 11
-82.1999998093
 21
2.41646695137
 31
0.0
  0
LINE
  5
D2
  8
0
 62
     0
 10
-80.1500005722
 20
2.41646695137
 30
0.0
 11
-82.1999998093
 21
2.41646695137
 31
0.0
  0
LINE
  5
D3
  8
0
 62
     0
 10
-80.1500005722
 20
1.74979996681
 30
0.0
 11
-80.1500015259
 21
1.74979996681
 31
0.0
  0
LINE
  5
D4
  8
0
 62
     0
 10
-84.4000015259
 20
-2.33333301544
 30
0.0
 11
-84.4000015259
 21
0.740067005157
 31
0.0
  0
LINE
  5
D5
  8
0
 62
     0
 10
-84.4000015259
 20
-2.33333301544
 30
0.0
 11
-84.5500011444
 21
-2.33333301544
 31
0.0
  0
LINE
  5
D6
  8
0
 62
     0
 10
-84.5500011444
 20
2.41646695137
 30
0.0
 11
-84.4000015259
 21
2.41646695137
 31
0.0
  0
LINE
  5
D7
  8
0
 62
     0
 10
-84.5500011444
 20
2.41646695137
 30
0.0
 11
-84.5500011444
 21
-2.33333301544
 31
0.0
  0
LINE
  5
D8
  8
0
 62
     0
 10
-169.81143468
 20
46.0150642395
 30
0.0
 11
-5.70476531982
 21
46.0150642395
 31
0.0
  0
LINE
  5
D9
  8
0
 62
     0
 10
-169.81143468
 20
-46.0150642395
 30
0.0
 11
-169.81143468
 21
46.0150642395
 31
0.0
  0
LINE
  5
DA
  8
0
 62
     0
 10
-5.70476531982
 20
46.0150642395
 30
0.0
 11
-5.70476531982
 21
-46.0150642395
 31
0.0
  0
LINE
  5
DB
  8
0
 62
     0
 10
-5.70476531982
 20
-46.0150642395
 30
0.0
 11
-169.81143468
 21
-46.0150642395
 31
0.0
  0
LINE
  5
DC
  8
0
 62
     0
 10
-80.1500015259
 20
-2.18333292007
 30
0.0
 11
-82.0500011444
 21
-2.18333292007
 31
0.0
  0
LINE
  5
DD
  8
0
 62
     0
 10
-80.1500015259
 20
-2.18333292007
 30
0.0
 11
-80.1500015259
 21
-2.33333301544
 31
0.0
  0
LINE
  5
DE
  8
0
 62
     0
 10
-82.0500011444
 20
-2.33333301544
 30
0.0
 11
-80.1500015259
 21
-2.33333301544
 31
0.0
  0
LINE
  5
DF
  8
0
 62
     0
 10
-82.0500011444
 20
-2.33333301544
 30
0.0
 11
-82.0500011444
 21
-2.18333292007
 31
0.0
  0
LINE
  5
E0
  8
0
 62
     0
 10
-83.1999969482
 20
2.41646695137
 30
0.0
 11
-83.2000007629
 21
2.41646695137
 31
0.0
  0
LINE
  5
E1
  8
0
 62
     0
 10
-83.1999969482
 20
2.26646709442
 30
0.0
 11
-83.1999969482
 21
2.41646695137
 31
0.0
  0
LINE
  5
E2
  8
0
 62
     0
 10
-83.2000007629
 20
2.26646709442
 30
0.0
 11
-83.1999969482
 21
2.26646709442
 31
0.0
  0
LINE
  5
E3
  8
0
 62
     0
 10
-83.2000007629
 20
-2.33333301544
 30
0.0
 11
-83.2000007629
 21
0.416467010975
 31
0.0
  0
LINE
  5
E4
  8
0
 62
     0
 10
-83.2000007629
 20
0.416467010975
 30
0.0
 11
-83.0500001907
 21
0.416467010975
 31
0.0
  0
LINE
  5
E5
  8
0
 62
     0
 10
-83.0500001907
 20
0.416467010975
 30
0.0
 11
-83.0500001907
 21
-2.33333301544
 31
0.0
  0
LINE
  5
E6
  8
0
 62
     0
 10
-83.0500001907
 20
-2.33333301544
 30
0.0
 11
-83.2000007629
 21
-2.33333301544
 31
0.0
  0
LINE
  5
E7
  8
0
 62
     0
 10
-83.0500001907
 20
-3.84999990463
 30
0.0
 11
-83.0500001907
 21
-5.5
 31
0.0
  0
LINE
  5
E8
  8
0
 62
     0
 10
-83.0500001907
 20
-5.5
 30
0.0
 11
-83.2000007629
 21
-5.5
 31
0.0
  0
LINE
  5
E9
  8
0
 62
     0
 10
-83.2000007629
 20
-5.5
 30
0.0
 11
-83.2000007629
 21
-3.84999990463
 31
0.0
  0
LINE
  5
EA
  8
0
 62
     0
 10
-83.2000007629
 20
-3.84999990463
 30
0.0
 11
-83.0500001907
 21
-3.84999990463
 31
0.0
  0
LINE
  5
EB
  8
0
 62
     0
 10
-80.1500015259
 20
-4.0
 30
0.0
 11
-82.0500011444
 21
-4.0
 31
0.0
  0
LINE
  5
EC
  8
0
 62
     0
 10
-82.0500011444
 20
-4.0
 30
0.0
 11
-82.0500011444
 21
-3.84999990463
 31
0.0
  0
LINE
  5
ED
  8
0
 62
     0
 10
-82.0500011444
 20
-3.84999990463
 30
0.0
 11
-80.1500015259
 21
-3.84999990463
 31
0.0
  0
LINE
  5
EE
  8
0
 62
     0
 10
-80.1500015259
 20
-3.84999990463
 30
0.0
 11
-80.1500015259
 21
-4.0
 31
0.0
  0
LINE
  5
EF
  8
0
 62
     0
 10
-80.1500008533
 20
-4.76117801666
 30
0.0
 11
-80.1500004915
 21
-3.53611588478
 31
0.0
  0
LINE
  5
F0
  8
0
 62
     0
 10
-80.1500016177
 20
-7.34999990463
 30
0.0
 11
-80.1500012355
 21
-6.05558919907
 31
0.0
  0
LINE
  5
F1
  8
0
 62
     0
 10
-79.9999998496
 20
-0.71500402689
 30
0.0
 11
-79.9999999146
 21
-0.946474015713
 31
0.0
  0
LINE
  5
F2
  8
0
 62
     0
 10
-80.1500005722
 20
-3.53611588478
 30
0.0
 11
-80.0000009537
 21
-3.53611588478
 31
0.0
  0
LINE
  5
F3
  8
0
 62
     0
 10
-80.0000006418
 20
-3.53611588478
 30
0.0
 11
-80.0000009858
 21
-4.76117801666
 31
0.0
  0
LINE
  5
F4
  8
0
 62
     0
 10
-80.0000009537
 20
-4.76117801666
 30
0.0
 11
-80.1500005722
 21
-4.76117801666
 31
0.0
  0
LINE
  5
F5
  8
0
 62
     0
 10
-80.1500015259
 20
-6.05558919907
 30
0.0
 11
-80.0000009537
 21
-6.05558919907
 31
0.0
  0
LINE
  5
F6
  8
0
 62
     0
 10
-80.0000013493
 20
-6.05558919907
 30
0.0
 11
-80.0000017128
 21
-7.34999990463
 31
0.0
  0
LINE
  5
F7
  8
0
 62
     0
 10
-80.0000019073
 20
-7.34999990463
 30
0.0
 11
-80.1500015259
 21
-7.34999990463
 31
0.0
  0
LINE
  5
F8
  8
0
 62
     0
 10
-81.9000015259
 20
-2.33333301544
 30
0.0
 11
-81.9000015259
 21
-2.64166688919
 31
0.0
  0
LINE
  5
F9
  8
0
 62
     0
 10
-81.9000015259
 20
-2.64166688919
 30
0.0
 11
-82.0500011444
 21
-2.64166688919
 31
0.0
  0
LINE
  5
FA
  8
0
 62
     0
 10
-82.0500011444
 20
-2.64166688919
 30
0.0
 11
-82.0500011444
 21
-2.33333301544
 31
0.0
  0
LINE
  5
FB
  8
0
 62
     0
 10
-82.0500011444
 20
-2.33333301544
 30
0.0
 11
-81.9000015259
 21
-2.33333301544
 31
0.0
  0
LINE
  5
FC
  8
0
 62
     0
 10
-81.9000015259
 20
-3.54166603088
 30
0.0
 11
-81.9000015259
 21
-3.84999990463
 31
0.0
  0
LINE
  5
FD
  8
0
 62
     0
 10
-81.9000015259
 20
-3.84999990463
 30
0.0
 11
-82.0500011444
 21
-3.84999990463
 31
0.0
  0
LINE
  5
FE
  8
0
 62
     0
 10
-82.0500011444
 20
-3.84999990463
 30
0.0
 11
-82.0500011444
 21
-3.54166603088
 31
0.0
  0
LINE
  5
FF
  8
0
 62
     0
 10
-82.0500011444
 20
-3.54166603088
 30
0.0
 11
-81.9000015259
 21
-3.54166603088
 31
0.0
  0
ENDBLK
  5
100
  8
0
  0
ENDSEC
  0
SECTION
  2
ENTITIES
  0
INSERT
  5
101
  8
0
  2
SHAPE2DVIEW
 10
0.0
 20
0.0
 30
0.0
  0
ENDSEC
  0
EOF
