  0
SECTION
  2
HEADER
  9
$ACADVER
  1
AC1009
  9
$INSBASE
 10
0.0
 20
0.0
 30
0.0
  9
$EXTMIN
 10
0.0
 20
0.0
 30
0.0
  9
$EXTMAX
 10
0.0
 20
0.0
 30
0.0
  0
ENDSEC
  0
SECTION
  2
TABLES
  0
TABLE
  2
VPORT
 70
0
  0
ENDTAB
  0
TABLE
  2
LTYPE
 70
1
  0
LTYPE
  2
CONTINUOUS
 70
0
  3
Solid line
 72
65
 73
0
 40
0.0
  0
ENDTAB
  0
TABLE
  2
LAYER
 70
1
  0
LAYER
  2
0
 70
64
 62
7
  6
continuous
  0
ENDTAB
  0
TABLE
  2
STYLE
 70
1
  0
STYLE
  2
STANDARD
 70
0
 40
0
 41
1.0
 50
0.0
 71
0
 42
1
 3
ARIAL.TTF
 4

  0
ENDTAB
  0
TABLE
  2
VIEW
 70
0
  0
ENDTAB
  0
ENDSEC
  0
SECTION
  2
BLOCKS
  0
BLOCK
  8
0
  2
SHAPE2DVIEW
 70
0
 10
0.0
 20
0.0
 30
0.0
  3
SHAPE2DVIEW
  0
LINE
  8
0
 62
0
 10
-85.8999996185
 20
2.11646699905
 30
0.0
 11
-85.8999996185
 21
5.26646709442
 31
0.0
  0
LINE
  8
0
 62
0
 10
-89.4499969482
 20
2.11646699905
 30
0.0
 11
-85.8999996185
 21
2.11646699905
 31
0.0
  0
LINE
  8
0
 62
0
 10
-85.8999996185
 20
2.11646699905
 30
0.0
 11
-89.4499969482
 21
2.11646699905
 31
0.0
  0
LINE
  8
0
 62
0
 10
-85.8999996185
 20
5.26646709442
 30
0.0
 11
-85.4799995422
 21
5.26646709442
 31
0.0
  0
LINE
  8
0
 62
0
 10
-89.4499969482
 20
5.26646709442
 30
0.0
 11
-86.0499992371
 21
5.26646709442
 31
0.0
  0
LINE
  8
0
 62
0
 10
-85.4799995422
 20
5.26646709442
 30
0.0
 11
-85.8999996185
 21
5.26646709442
 31
0.0
  0
LINE
  8
0
 62
0
 10
-86.0499992371
 20
5.26646709442
 30
0.0
 11
-86.0499992371
 21
2.26646709442
 31
0.0
  0
LINE
  8
0
 62
0
 10
-86.0499992371
 20
2.26646709442
 30
0.0
 11
-89.4499969482
 21
2.26646709442
 31
0.0
  0
LINE
  8
0
 62
0
 10
-89.5999984741
 20
5.41646718979
 30
0.0
 11
-89.5999984741
 21
4.36646699905
 31
0.0
  0
LINE
  8
0
 62
0
 10
-89.5999984741
 20
4.36646699905
 30
0.0
 11
-89.5999984741
 21
3.31646704674
 31
0.0
  0
LINE
  8
0
 62
0
 10
-89.5999984741
 20
3.31646704674
 30
0.0
 11
-89.5999984741
 21
2.26646709442
 31
0.0
  0
LINE
  8
0
 62
0
 10
-89.5999984741
 20
2.26646709442
 30
0.0
 11
-89.5999984741
 21
0.766466975212
 31
0.0
  0
LINE
  8
0
 62
0
 10
-89.5999984741
 20
0.766466975212
 30
0.0
 11
-89.5999984741
 21
-0.266799986362
 31
0.0
  0
LINE
  8
0
 62
0
 10
-89.5999984741
 20
-0.266799986362
 30
0.0
 11
-89.5999984741
 21
-1.30006599426
 31
0.0
  0
LINE
  8
0
 62
0
 10
-89.5999984741
 20
-1.30006599426
 30
0.0
 11
-89.5999984741
 21
-2.33333301544
 31
0.0
  0
LINE
  8
0
 62
0
 10
-89.5999984741
 20
-2.33333301544
 30
0.0
 11
-89.5999984741
 21
-3.38888907433
 31
0.0
  0
LINE
  8
0
 62
0
 10
-89.5999984741
 20
-3.38888907433
 30
0.0
 11
-89.5999984741
 21
-4.44444513321
 31
0.0
  0
LINE
  8
0
 62
0
 10
-89.5999984741
 20
-4.44444513321
 30
0.0
 11
-89.5999984741
 21
-5.5
 31
0.0
  0
LINE
  8
0
 62
0
 10
-89.5999984741
 20
-5.5
 30
0.0
 11
-86.0500011444
 21
-5.5
 31
0.0
  0
LINE
  8
0
 62
0
 10
-85.4799995422
 20
5.41646718979
 30
0.0
 11
-86.0499992371
 21
5.41646718979
 31
0.0
  0
LINE
  8
0
 62
0
 10
-86.0499992371
 20
5.41646718979
 30
0.0
 11
-89.5999984741
 21
5.41646718979
 31
0.0
  0
LINE
  8
0
 62
0
 10
-86.0500011444
 20
-5.34999990463
 30
0.0
 11
-86.0500011444
 21
-5.5
 31
0.0
  0
LINE
  8
0
 62
0
 10
-86.0500011444
 20
-5.34999990463
 30
0.0
 11
-89.4499969482
 21
-5.34999990463
 31
0.0
  0
LINE
  8
0
 62
0
 10
-85.4799995422
 20
5.41646718979
 30
0.0
 11
-85.4799995422
 21
5.26646709442
 31
0.0
  0
LINE
  8
0
 62
0
 10
-89.4499969482
 20
-5.34999990463
 30
0.0
 11
-89.4499969482
 21
-4.44444513321
 31
0.0
  0
LINE
  8
0
 62
0
 10
-89.4499969482
 20
-4.44444513321
 30
0.0
 11
-89.4499969482
 21
-3.38888907433
 31
0.0
  0
LINE
  8
0
 62
0
 10
-89.4499969482
 20
-3.38888907433
 30
0.0
 11
-89.4499969482
 21
-2.48333311081
 31
0.0
  0
LINE
  8
0
 62
0
 10
-89.4499969482
 20
-2.33333301544
 30
0.0
 11
-89.4499969482
 21
-2.48333311081
 31
0.0
  0
LINE
  8
0
 62
0
 10
-89.4499969482
 20
-2.33333301544
 30
0.0
 11
-89.4499969482
 21
-1.30006599426
 31
0.0
  0
LINE
  8
0
 62
0
 10
-89.4499969482
 20
-1.30006599426
 30
0.0
 11
-89.4499969482
 21
-0.266799986362
 31
0.0
  0
LINE
  8
0
 62
0
 10
-89.4499969482
 20
-0.266799986362
 30
0.0
 11
-89.4499969482
 21
0.616466999054
 31
0.0
  0
LINE
  8
0
 62
0
 10
-89.4499969482
 20
0.766466975212
 30
0.0
 11
-89.4499969482
 21
0.616466999054
 31
0.0
  0
LINE
  8
0
 62
0
 10
-89.4499969482
 20
0.766466975212
 30
0.0
 11
-89.4499969482
 21
2.26646709442
 31
0.0
  0
LINE
  8
0
 62
0
 10
-89.4499969482
 20
2.26646709442
 30
0.0
 11
-89.4499969482
 21
3.31646704674
 31
0.0
  0
LINE
  8
0
 62
0
 10
-89.4499969482
 20
3.31646704674
 30
0.0
 11
-89.4499969482
 21
4.36646699905
 31
0.0
  0
LINE
  8
0
 62
0
 10
-89.4499969482
 20
4.36646699905
 30
0.0
 11
-89.4499969482
 21
5.26646709442
 31
0.0
  0
LINE
  8
0
 62
0
 10
-89.4499969482
 20
2.26646709442
 30
0.0
 11
-89.4499969482
 21
2.11646699905
 31
0.0
  0
LINE
  8
0
 62
0
 10
-89.4499969482
 20
-2.48333311081
 30
0.0
 11
-86.2000007629
 21
-2.48333311081
 31
0.0
  0
LINE
  8
0
 62
0
 10
-86.2000007629
 20
-2.48333311081
 30
0.0
 11
-86.2000007629
 21
-4.5
 31
0.0
  0
LINE
  8
0
 62
0
 10
-86.0499992371
 20
-2.33333301544
 30
0.0
 11
-89.4499969482
 21
-2.33333301544
 31
0.0
  0
LINE
  8
0
 62
0
 10
-86.0499992371
 20
-2.33333301544
 30
0.0
 11
-86.0499992371
 21
-4.5
 31
0.0
  0
LINE
  8
0
 62
0
 10
-86.0499992371
 20
-4.5
 30
0.0
 11
-86.0499992371
 21
-2.33333301544
 31
0.0
  0
LINE
  8
0
 62
0
 10
-86.0499992371
 20
-4.5
 30
0.0
 11
-86.2000007629
 21
-4.5
 31
0.0
  0
LINE
  8
0
 62
0
 10
-89.4499969482
 20
-2.48333311081
 30
0.0
 11
-89.4499969482
 21
-2.33333301544
 31
0.0
  0
LINE
  8
0
 62
0
 10
-89.4499969482
 20
0.616466999054
 30
0.0
 11
-86.2000007629
 21
0.616466999054
 31
0.0
  0
LINE
  8
0
 62
0
 10
-86.2000007629
 20
0.616466999054
 30
0.0
 11
-86.2000007629
 21
-1.33333301544
 31
0.0
  0
LINE
  8
0
 62
0
 10
-86.0499992371
 20
-1.33333301544
 30
0.0
 11
-86.2000007629
 21
-1.33333301544
 31
0.0
  0
LINE
  8
0
 62
0
 10
-86.0499992371
 20
0.766466975212
 30
0.0
 11
-89.4499969482
 21
0.766466975212
 31
0.0
  0
LINE
  8
0
 62
0
 10
-86.0499992371
 20
-1.33333301544
 30
0.0
 11
-86.0499992371
 21
0.766466975212
 31
0.0
  0
LINE
  8
0
 62
0
 10
-86.0499992371
 20
0.766466975212
 30
0.0
 11
-86.0499992371
 21
-1.33333301544
 31
0.0
  0
LINE
  8
0
 62
0
 10
-89.4499988556
 20
10.1499996185
 30
0.0
 11
-80.1500005722
 21
10.1499996185
 31
0.0
  0
LINE
  8
0
 62
0
 10
-89.4499988556
 20
7.30000019073
 30
0.0
 11
-89.4499988556
 21
10.1499996185
 31
0.0
  0
LINE
  8
0
 62
0
 10
-80.1500005722
 20
10.1499996185
 30
0.0
 11
-80.1500005722
 21
5.41646718979
 31
0.0
  0
LINE
  8
0
 62
0
 10
-80.0
 20
-1.08353304863
 30
0.0
 11
-80.0
 21
-3.08353304863
 31
0.0
  0
LINE
  8
0
 62
0
 10
-80.0
 20
5.41646718979
 30
0.0
 11
-80.0
 21
0.416467010975
 31
0.0
  0
LINE
  8
0
 62
0
 10
-80.0
 20
0.416467010975
 30
0.0
 11
-80.0
 21
-1.08353304863
 31
0.0
  0
LINE
  8
0
 62
0
 10
-80.1500005722
 20
-3.08353304863
 30
0.0
 11
-80.0
 21
-3.08353304863
 31
0.0
  0
LINE
  8
0
 62
0
 10
-83.2000007629
 20
5.41646718979
 30
0.0
 11
-80.1500005722
 21
5.41646718979
 31
0.0
  0
LINE
  8
0
 62
0
 10
-83.7700004578
 20
5.41646718979
 30
0.0
 11
-83.2000007629
 21
5.41646718979
 31
0.0
  0
LINE
  8
0
 62
0
 10
-83.7700004578
 20
5.41646718979
 30
0.0
 11
-83.7700004578
 21
5.26646709442
 31
0.0
  0
LINE
  8
0
 62
0
 10
-83.2000007629
 20
5.26646709442
 30
0.0
 11
-83.7700004578
 21
5.26646709442
 31
0.0
  0
LINE
  8
0
 62
0
 10
-80.1500005722
 20
5.26646709442
 30
0.0
 11
-83.2000007629
 21
5.26646709442
 31
0.0
  0
LINE
  8
0
 62
0
 10
-80.1500005722
 20
0.416467010975
 30
0.0
 11
-80.1500005722
 21
5.26646709442
 31
0.0
  0
LINE
  8
0
 62
0
 10
-80.1500005722
 20
-1.08353304863
 30
0.0
 11
-80.1500005722
 21
0.416467010975
 31
0.0
  0
LINE
  8
0
 62
0
 10
-80.1500005722
 20
-3.08353304863
 30
0.0
 11
-80.1500005722
 21
-1.08353304863
 31
0.0
  0
LINE
  8
0
 62
0
 10
-80.0
 20
5.41646718979
 30
0.0
 11
-80.0
 21
10.2999992371
 31
0.0
  0
LINE
  8
0
 62
0
 10
-80.0
 20
10.2999992371
 30
0.0
 11
-89.5999984741
 21
10.2999992371
 31
0.0
  0
LINE
  8
0
 62
0
 10
-89.5999984741
 20
10.2999992371
 30
0.0
 11
-89.5999984741
 21
7.30000019073
 31
0.0
  0
LINE
  8
0
 62
0
 10
-80.0
 20
5.41646718979
 30
0.0
 11
-80.1500005722
 21
5.41646718979
 31
0.0
  0
LINE
  8
0
 62
0
 10
-89.4499988556
 20
7.30000019073
 30
0.0
 11
-89.5999984741
 21
7.30000019073
 31
0.0
  0
LINE
  8
0
 62
0
 10
-85.9000015259
 20
-2.33333301544
 30
0.0
 11
-85.9000015259
 21
2.11646699905
 31
0.0
  0
LINE
  8
0
 62
0
 10
-86.0500011444
 20
2.41646695137
 30
0.0
 11
-86.0499992371
 21
2.41646695137
 31
0.0
  0
LINE
  8
0
 62
0
 10
-85.9000015259
 20
-2.33333301544
 30
0.0
 11
-86.0499992371
 21
-2.33333301544
 31
0.0
  0
LINE
  8
0
 62
0
 10
-86.0500011444
 20
2.41646695137
 30
0.0
 11
-86.0500011444
 21
2.26646709442
 31
0.0
  0
LINE
  8
0
 62
0
 10
-86.0500011444
 20
2.11646699905
 30
0.0
 11
-86.0500011444
 21
0.766466975212
 31
0.0
  0
LINE
  8
0
 62
0
 10
-86.0500011444
 20
-1.33333301544
 30
0.0
 11
-86.0500011444
 21
-2.33333301544
 31
0.0
  0
LINE
  8
0
 62
0
 10
-86.0500011444
 20
3.41646695137
 30
0.0
 11
-86.0500011444
 21
5.26646709442
 31
0.0
  0
LINE
  8
0
 62
0
 10
-84.5500011444
 20
3.41646695137
 30
0.0
 11
-85.8999996185
 21
3.41646695137
 31
0.0
  0
LINE
  8
0
 62
0
 10
-86.0499992371
 20
3.41646695137
 30
0.0
 11
-86.0500011444
 21
3.41646695137
 31
0.0
  0
LINE
  8
0
 62
0
 10
-86.0500011444
 20
5.26646709442
 30
0.0
 11
-86.0499992371
 21
5.26646709442
 31
0.0
  0
LINE
  8
0
 62
0
 10
-85.8999996185
 20
3.56646704674
 30
0.0
 11
-84.5500011444
 21
3.56646704674
 31
0.0
  0
LINE
  8
0
 62
0
 10
-84.5500011444
 20
3.56646704674
 30
0.0
 11
-84.5500011444
 21
3.41646695137
 31
0.0
  0
LINE
  8
0
 62
0
 10
-85.9000015259
 20
-5.34999990463
 30
0.0
 11
-85.9000015259
 21
-7.34999990463
 31
0.0
  0
LINE
  8
0
 62
0
 10
-85.9000015259
 20
-7.34999990463
 30
0.0
 11
-86.0500011444
 21
-7.34999990463
 31
0.0
  0
LINE
  8
0
 62
0
 10
-86.0500011444
 20
-7.34999990463
 30
0.0
 11
-86.0500011444
 21
-5.5
 31
0.0
  0
LINE
  8
0
 62
0
 10
-86.0500011444
 20
-5.34999990463
 30
0.0
 11
-85.9000015259
 21
-5.34999990463
 31
0.0
  0
LINE
  8
0
 62
0
 10
-82.0333337784
 20
-7.34999990463
 30
0.0
 11
-83.0500001907
 21
-7.34999990463
 31
0.0
  0
LINE
  8
0
 62
0
 10
-80.0000009537
 20
-7.34999990463
 30
0.0
 11
-81.016667366
 21
-7.34999990463
 31
0.0
  0
LINE
  8
0
 62
0
 10
-83.0500001907
 20
-7.5
 30
0.0
 11
-83.0500001907
 21
-7.34999990463
 31
0.0
  0
LINE
  8
0
 62
0
 10
-82.0333337784
 20
-7.34999990463
 30
0.0
 11
-82.0333337784
 21
-7.5
 31
0.0
  0
LINE
  8
0
 62
0
 10
-83.0500001907
 20
-7.5
 30
0.0
 11
-82.0333337784
 21
-7.5
 31
0.0
  0
LINE
  8
0
 62
0
 10
-81.016667366
 20
-7.5
 30
0.0
 11
-81.016667366
 21
-7.34999990463
 31
0.0
  0
LINE
  8
0
 62
0
 10
-80.0000009537
 20
-7.34999990463
 30
0.0
 11
-80.0000009537
 21
-7.5
 31
0.0
  0
LINE
  8
0
 62
0
 10
-81.016667366
 20
-7.5
 30
0.0
 11
-80.0000009537
 21
-7.5
 31
0.0
  0
LINE
  8
0
 62
0
 10
-84.4000015259
 20
3.41646695137
 30
0.0
 11
-84.4000015259
 21
5.26646709442
 31
0.0
  0
LINE
  8
0
 62
0
 10
-84.5500011444
 20
3.41646695137
 30
0.0
 11
-84.4000015259
 21
3.41646695137
 31
0.0
  0
LINE
  8
0
 62
0
 10
-84.5500011444
 20
5.26646709442
 30
0.0
 11
-84.5500011444
 21
3.41646695137
 31
0.0
  0
LINE
  8
0
 62
0
 10
-84.4000015259
 20
5.26646709442
 30
0.0
 11
-84.5500011444
 21
5.26646709442
 31
0.0
  0
LINE
  8
0
 62
0
 10
-97.5999984741
 20
12.3000001907
 30
0.0
 11
-77.9999990463
 21
12.3000001907
 31
0.0
  0
LINE
  8
0
 62
0
 10
-77.9999990463
 20
-12.5
 30
0.0
 11
-77.9999990463
 21
12.3000001907
 31
0.0
  0
LINE
  8
0
 62
0
 10
-97.5999984741
 20
12.3000001907
 30
0.0
 11
-97.5999984741
 21
-12.5
 31
0.0
  0
LINE
  8
0
 62
0
 10
-97.5999984741
 20
-12.5
 30
0.0
 11
-97.7999992371
 21
-12.5
 31
0.0
  0
LINE
  8
0
 62
0
 10
-97.7999992371
 20
-12.5
 30
0.0
 11
-97.7999992371
 21
12.5
 31
0.0
  0
LINE
  8
0
 62
0
 10
-77.7999992371
 20
12.5
 30
0.0
 11
-97.7999992371
 21
12.5
 31
0.0
  0
LINE
  8
0
 62
0
 10
-77.7999992371
 20
12.5
 30
0.0
 11
-77.7999992371
 21
-12.5
 31
0.0
  0
LINE
  8
0
 62
0
 10
-77.7999992371
 20
-12.5
 30
0.0
 11
-77.9999990463
 21
-12.5
 31
0.0
  0
LINE
  8
0
 62
0
 10
-89.4499969482
 20
-1.30006599426
 30
0.0
 11
-89.4499969482
 21
-2.33333301544
 31
0.0
  0
LINE
  8
0
 62
0
 10
-89.4499969482
 20
-2.48333311081
 30
0.0
 11
-89.4499969482
 21
-3.38888907433
 31
0.0
  0
LINE
  8
0
 62
0
 10
-89.4499969482
 20
-4.44444513321
 30
0.0
 11
-89.4499969482
 21
-5.34999990463
 31
0.0
  0
LINE
  8
0
 62
0
 10
-89.4499969482
 20
-5.34999990463
 30
0.0
 11
-88.8899974823
 21
-5.34999990463
 31
0.0
  0
LINE
  8
0
 62
0
 10
-89.4499969482
 20
2.81583189964
 30
0.0
 11
-89.4499969482
 21
2.26646709442
 31
0.0
  0
LINE
  8
0
 62
0
 10
-89.4499969482
 20
2.11646699905
 30
0.0
 11
-89.4499969482
 21
2.07279205322
 31
0.0
  0
LINE
  8
0
 62
0
 10
-89.4499969482
 20
5.26646709442
 30
0.0
 11
-89.4499969482
 21
4.6734290123
 31
0.0
  0
LINE
  8
0
 62
0
 10
-84.4000015259
 20
5.26646709442
 30
0.0
 11
-85.4799995422
 21
5.26646709442
 31
0.0
  0
LINE
  8
0
 62
0
 10
-85.4799995422
 20
5.41646718979
 30
0.0
 11
-84.4000015259
 21
5.41646718979
 31
0.0
  0
LINE
  8
0
 62
0
 10
-84.4000015259
 20
5.41646718979
 30
0.0
 11
-84.4000015259
 21
5.26646709442
 31
0.0
  0
LINE
  8
0
 62
0
 10
-80.1500005722
 20
5.26646709442
 30
0.0
 11
-83.4000015259
 21
5.26646709442
 31
0.0
  0
LINE
  8
0
 62
0
 10
-80.0
 20
5.41646718979
 30
0.0
 11
-79.9999990463
 21
5.41646718979
 31
0.0
  0
LINE
  8
0
 62
0
 10
-79.9999990463
 20
5.41646718979
 30
0.0
 11
-79.9999990463
 21
4.41646718979
 31
0.0
  0
LINE
  8
0
 62
0
 10
-79.9999990463
 20
4.41646718979
 30
0.0
 11
-80.0
 21
4.41646718979
 31
0.0
  0
LINE
  8
0
 62
0
 10
-79.9999990463
 20
2.41646695137
 30
0.0
 11
-80.0
 21
2.41646695137
 31
0.0
  0
LINE
  8
0
 62
0
 10
-79.9999990463
 20
3.41646695137
 30
0.0
 11
-79.9999990463
 21
2.41646695137
 31
0.0
  0
LINE
  8
0
 62
0
 10
-80.0
 20
3.41646695137
 30
0.0
 11
-79.9999990463
 21
3.41646695137
 31
0.0
  0
LINE
  8
0
 62
0
 10
-83.2000007629
 20
-7.34999990463
 30
0.0
 11
-83.2000007629
 21
-5.5
 31
0.0
  0
LINE
  8
0
 62
0
 10
-84.0500011444
 20
-7.34999990463
 30
0.0
 11
-83.2000007629
 21
-7.34999990463
 31
0.0
  0
LINE
  8
0
 62
0
 10
-86.0500011444
 20
-7.34999990463
 30
0.0
 11
-85.0500011444
 21
-7.34999990463
 31
0.0
  0
LINE
  8
0
 62
0
 10
-83.2000007629
 20
-5.5
 30
0.0
 11
-83.0500011444
 21
-5.5
 31
0.0
  0
LINE
  8
0
 62
0
 10
-83.0500011444
 20
-5.5
 30
0.0
 11
-83.0500011444
 21
-7.5
 31
0.0
  0
LINE
  8
0
 62
0
 10
-83.0500011444
 20
-7.5
 30
0.0
 11
-84.0500011444
 21
-7.5
 31
0.0
  0
LINE
  8
0
 62
0
 10
-84.0500011444
 20
-7.5
 30
0.0
 11
-84.0500011444
 21
-7.34999990463
 31
0.0
  0
LINE
  8
0
 62
0
 10
-86.0500011444
 20
-7.5
 30
0.0
 11
-86.0500011444
 21
-7.34999990463
 31
0.0
  0
LINE
  8
0
 62
0
 10
-85.0500011444
 20
-7.34999990463
 30
0.0
 11
-85.0500011444
 21
-7.5
 31
0.0
  0
LINE
  8
0
 62
0
 10
-85.0500011444
 20
-7.5
 30
0.0
 11
-86.0500011444
 21
-7.5
 31
0.0
  0
LINE
  8
0
 62
0
 10
-83.2000007629
 20
0.460667014122
 30
0.0
 11
-83.2000007629
 21
0.181266993284
 31
0.0
  0
LINE
  8
0
 62
0
 10
-83.2000007629
 20
0.181266993284
 30
0.0
 11
-84.3999996185
 21
0.181266993284
 31
0.0
  0
LINE
  8
0
 62
0
 10
-84.3999996185
 20
0.181266993284
 30
0.0
 11
-84.3999996185
 21
0.460667014122
 31
0.0
  0
LINE
  8
0
 62
0
 10
-83.2000007629
 20
0.740067005157
 30
0.0
 11
-83.2000007629
 21
0.460667014122
 31
0.0
  0
LINE
  8
0
 62
0
 10
-83.2000007629
 20
0.460667014122
 30
0.0
 11
-84.3999996185
 21
0.460667014122
 31
0.0
  0
LINE
  8
0
 62
0
 10
-84.3999996185
 20
0.460667014122
 30
0.0
 11
-84.4000015259
 21
0.740067005157
 31
0.0
  0
LINE
  8
0
 62
0
 10
-83.2000007629
 20
1.01946699619
 30
0.0
 11
-83.2000007629
 21
0.740067005157
 31
0.0
  0
LINE
  8
0
 62
0
 10
-83.2000007629
 20
0.740067005157
 30
0.0
 11
-84.4000015259
 21
0.740067005157
 31
0.0
  0
LINE
  8
0
 62
0
 10
-84.4000015259
 20
0.740067005157
 30
0.0
 11
-84.4000015259
 21
1.01946699619
 31
0.0
  0
LINE
  8
0
 62
0
 10
-83.2000007629
 20
1.29886698723
 30
0.0
 11
-83.2000007629
 21
1.01946699619
 31
0.0
  0
LINE
  8
0
 62
0
 10
-83.2000007629
 20
1.01946699619
 30
0.0
 11
-84.4000015259
 21
1.01946699619
 31
0.0
  0
LINE
  8
0
 62
0
 10
-84.4000015259
 20
1.01946699619
 30
0.0
 11
-84.4000015259
 21
1.29886698723
 31
0.0
  0
LINE
  8
0
 62
0
 10
-83.2000007629
 20
1.57826697826
 30
0.0
 11
-83.2000007629
 21
1.29886698723
 31
0.0
  0
LINE
  8
0
 62
0
 10
-83.2000007629
 20
1.29886698723
 30
0.0
 11
-84.4000015259
 21
1.29886698723
 31
0.0
  0
LINE
  8
0
 62
0
 10
-84.4000015259
 20
1.29886698723
 30
0.0
 11
-84.4000015259
 21
1.57826697826
 31
0.0
  0
LINE
  8
0
 62
0
 10
-83.2000007629
 20
1.8576669693
 30
0.0
 11
-83.2000007629
 21
1.57826697826
 31
0.0
  0
LINE
  8
0
 62
0
 10
-83.2000007629
 20
1.57826697826
 30
0.0
 11
-84.4000015259
 21
1.57826697826
 31
0.0
  0
LINE
  8
0
 62
0
 10
-84.4000015259
 20
1.57826697826
 30
0.0
 11
-84.4000015259
 21
1.8576669693
 31
0.0
  0
LINE
  8
0
 62
0
 10
-83.2000007629
 20
2.13706707954
 30
0.0
 11
-83.2000007629
 21
1.8576669693
 31
0.0
  0
LINE
  8
0
 62
0
 10
-83.2000007629
 20
1.8576669693
 30
0.0
 11
-84.4000015259
 21
1.8576669693
 31
0.0
  0
LINE
  8
0
 62
0
 10
-84.4000015259
 20
1.8576669693
 30
0.0
 11
-84.4000015259
 21
2.13706707954
 31
0.0
  0
LINE
  8
0
 62
0
 10
-83.2000007629
 20
2.41646695137
 30
0.0
 11
-83.2000007629
 21
2.13706707954
 31
0.0
  0
LINE
  8
0
 62
0
 10
-84.4000015259
 20
2.41646695137
 30
0.0
 11
-83.2000007629
 21
2.41646695137
 31
0.0
  0
LINE
  8
0
 62
0
 10
-83.2000007629
 20
2.13706707954
 30
0.0
 11
-84.4000015259
 21
2.13706707954
 31
0.0
  0
LINE
  8
0
 62
0
 10
-84.4000015259
 20
2.13706707954
 30
0.0
 11
-84.4000015259
 21
2.41646695137
 31
0.0
  0
LINE
  8
0
 62
0
 10
-83.0500001907
 20
0.566466987133
 30
0.0
 11
-83.0500001907
 21
2.41646695137
 31
0.0
  0
LINE
  8
0
 62
0
 10
-83.0500001907
 20
0.566466987133
 30
0.0
 11
-80.1500015259
 21
0.566466987133
 31
0.0
  0
LINE
  8
0
 62
0
 10
-80.1500015259
 20
1.08313298225
 30
0.0
 11
-80.1500015259
 21
0.566466987133
 31
0.0
  0
LINE
  8
0
 62
0
 10
-80.1500015259
 20
1.08313298225
 30
0.0
 11
-80.1500005722
 21
1.08313298225
 31
0.0
  0
LINE
  8
0
 62
0
 10
-83.1999998093
 20
0.416467010975
 30
0.0
 11
-80.1500005722
 21
0.416467010975
 31
0.0
  0
LINE
  8
0
 62
0
 10
-83.1999998093
 20
2.41646695137
 30
0.0
 11
-83.1999998093
 21
0.416467010975
 31
0.0
  0
LINE
  8
0
 62
0
 10
-83.1999998093
 20
2.41646695137
 30
0.0
 11
-83.0500001907
 21
2.41646695137
 31
0.0
  0
LINE
  8
0
 62
0
 10
-80.1500015259
 20
2.26646709442
 30
0.0
 11
-80.1500015259
 21
1.74979996681
 31
0.0
  0
LINE
  8
0
 62
0
 10
-82.1999998093
 20
2.26646709442
 30
0.0
 11
-80.1500015259
 21
2.26646709442
 31
0.0
  0
LINE
  8
0
 62
0
 10
-82.1999998093
 20
2.26646709442
 30
0.0
 11
-82.1999998093
 21
2.41646695137
 31
0.0
  0
LINE
  8
0
 62
0
 10
-80.1500005722
 20
2.41646695137
 30
0.0
 11
-82.1999998093
 21
2.41646695137
 31
0.0
  0
LINE
  8
0
 62
0
 10
-80.1500005722
 20
1.74979996681
 30
0.0
 11
-80.1500015259
 21
1.74979996681
 31
0.0
  0
LINE
  8
0
 62
0
 10
-84.4000015259
 20
-2.33333301544
 30
0.0
 11
-84.4000015259
 21
0.740067005157
 31
0.0
  0
LINE
  8
0
 62
0
 10
-84.4000015259
 20
-2.33333301544
 30
0.0
 11
-84.5500011444
 21
-2.33333301544
 31
0.0
  0
LINE
  8
0
 62
0
 10
-84.5500011444
 20
2.41646695137
 30
0.0
 11
-84.4000015259
 21
2.41646695137
 31
0.0
  0
LINE
  8
0
 62
0
 10
-84.5500011444
 20
2.41646695137
 30
0.0
 11
-84.5500011444
 21
-2.33333301544
 31
0.0
  0
LINE
  8
0
 62
0
 10
-169.81143468
 20
46.0150642395
 30
0.0
 11
-5.70476531982
 21
46.0150642395
 31
0.0
  0
LINE
  8
0
 62
0
 10
-169.81143468
 20
-46.0150642395
 30
0.0
 11
-169.81143468
 21
46.0150642395
 31
0.0
  0
LINE
  8
0
 62
0
 10
-5.70476531982
 20
46.0150642395
 30
0.0
 11
-5.70476531982
 21
-46.0150642395
 31
0.0
  0
LINE
  8
0
 62
0
 10
-5.70476531982
 20
-46.0150642395
 30
0.0
 11
-169.81143468
 21
-46.0150642395
 31
0.0
  0
LINE
  8
0
 62
0
 10
-80.1500015259
 20
-2.18333292007
 30
0.0
 11
-82.0500011444
 21
-2.18333292007
 31
0.0
  0
LINE
  8
0
 62
0
 10
-80.1500015259
 20
-2.18333292007
 30
0.0
 11
-80.1500015259
 21
-2.33333301544
 31
0.0
  0
LINE
  8
0
 62
0
 10
-82.0500011444
 20
-2.33333301544
 30
0.0
 11
-80.1500015259
 21
-2.33333301544
 31
0.0
  0
LINE
  8
0
 62
0
 10
-82.0500011444
 20
-2.33333301544
 30
0.0
 11
-82.0500011444
 21
-2.18333292007
 31
0.0
  0
LINE
  8
0
 62
0
 10
-83.1999969482
 20
2.41646695137
 30
0.0
 11
-83.2000007629
 21
2.41646695137
 31
0.0
  0
LINE
  8
0
 62
0
 10
-83.1999969482
 20
2.26646709442
 30
0.0
 11
-83.1999969482
 21
2.41646695137
 31
0.0
  0
LINE
  8
0
 62
0
 10
-83.2000007629
 20
2.26646709442
 30
0.0
 11
-83.1999969482
 21
2.26646709442
 31
0.0
  0
LINE
  8
0
 62
0
 10
-83.2000007629
 20
-2.33333301544
 30
0.0
 11
-83.2000007629
 21
0.416467010975
 31
0.0
  0
LINE
  8
0
 62
0
 10
-83.2000007629
 20
0.416467010975
 30
0.0
 11
-83.0500001907
 21
0.416467010975
 31
0.0
  0
LINE
  8
0
 62
0
 10
-83.0500001907
 20
0.416467010975
 30
0.0
 11
-83.0500001907
 21
-2.33333301544
 31
0.0
  0
LINE
  8
0
 62
0
 10
-83.0500001907
 20
-2.33333301544
 30
0.0
 11
-83.2000007629
 21
-2.33333301544
 31
0.0
  0
LINE
  8
0
 62
0
 10
-83.0500001907
 20
-3.84999990463
 30
0.0
 11
-83.0500001907
 21
-5.5
 31
0.0
  0
LINE
  8
0
 62
0
 10
-83.0500001907
 20
-5.5
 30
0.0
 11
-83.2000007629
 21
-5.5
 31
0.0
  0
LINE
  8
0
 62
0
 10
-83.2000007629
 20
-5.5
 30
0.0
 11
-83.2000007629
 21
-3.84999990463
 31
0.0
  0
LINE
  8
0
 62
0
 10
-83.2000007629
 20
-3.84999990463
 30
0.0
 11
-83.0500001907
 21
-3.84999990463
 31
0.0
  0
LINE
  8
0
 62
0
 10
-80.1500015259
 20
-4.0
 30
0.0
 11
-82.0500011444
 21
-4.0
 31
0.0
  0
LINE
  8
0
 62
0
 10
-82.0500011444
 20
-4.0
 30
0.0
 11
-82.0500011444
 21
-3.84999990463
 31
0.0
  0
LINE
  8
0
 62
0
 10
-82.0500011444
 20
-3.84999990463
 30
0.0
 11
-80.1500015259
 21
-3.84999990463
 31
0.0
  0
LINE
  8
0
 62
0
 10
-80.1500015259
 20
-3.84999990463
 30
0.0
 11
-80.1500015259
 21
-4.0
 31
0.0
  0
LINE
  8
0
 62
0
 10
-80.1500008533
 20
-4.76117801666
 30
0.0
 11
-80.1500004915
 21
-3.53611588478
 31
0.0
  0
LINE
  8
0
 62
0
 10
-80.1500016177
 20
-7.34999990463
 30
0.0
 11
-80.1500012355
 21
-6.05558919907
 31
0.0
  0
LINE
  8
0
 62
0
 10
-79.9999998496
 20
-0.71500402689
 30
0.0
 11
-79.9999999146
 21
-0.946474015713
 31
0.0
  0
LINE
  8
0
 62
0
 10
-80.1500005722
 20
-3.53611588478
 30
0.0
 11
-80.0000009537
 21
-3.53611588478
 31
0.0
  0
LINE
  8
0
 62
0
 10
-80.0000006418
 20
-3.53611588478
 30
0.0
 11
-80.0000009858
 21
-4.76117801666
 31
0.0
  0
LINE
  8
0
 62
0
 10
-80.0000009537
 20
-4.76117801666
 30
0.0
 11
-80.1500005722
 21
-4.76117801666
 31
0.0
  0
LINE
  8
0
 62
0
 10
-80.1500015259
 20
-6.05558919907
 30
0.0
 11
-80.0000009537
 21
-6.05558919907
 31
0.0
  0
LINE
  8
0
 62
0
 10
-80.0000013493
 20
-6.05558919907
 30
0.0
 11
-80.0000017128
 21
-7.34999990463
 31
0.0
  0
LINE
  8
0
 62
0
 10
-80.0000019073
 20
-7.34999990463
 30
0.0
 11
-80.1500015259
 21
-7.34999990463
 31
0.0
  0
LINE
  8
0
 62
0
 10
-81.9000015259
 20
-2.33333301544
 30
0.0
 11
-81.9000015259
 21
-2.64166688919
 31
0.0
  0
LINE
  8
0
 62
0
 10
-81.9000015259
 20
-2.64166688919
 30
0.0
 11
-82.0500011444
 21
-2.64166688919
 31
0.0
  0
LINE
  8
0
 62
0
 10
-82.0500011444
 20
-2.64166688919
 30
0.0
 11
-82.0500011444
 21
-2.33333301544
 31
0.0
  0
LINE
  8
0
 62
0
 10
-82.0500011444
 20
-2.33333301544
 30
0.0
 11
-81.9000015259
 21
-2.33333301544
 31
0.0
  0
LINE
  8
0
 62
0
 10
-81.9000015259
 20
-3.54166603088
 30
0.0
 11
-81.9000015259
 21
-3.84999990463
 31
0.0
  0
LINE
  8
0
 62
0
 10
-81.9000015259
 20
-3.84999990463
 30
0.0
 11
-82.0500011444
 21
-3.84999990463
 31
0.0
  0
LINE
  8
0
 62
0
 10
-82.0500011444
 20
-3.84999990463
 30
0.0
 11
-82.0500011444
 21
-3.54166603088
 31
0.0
  0
LINE
  8
0
 62
0
 10
-82.0500011444
 20
-3.54166603088
 30
0.0
 11
-81.9000015259
 21
-3.54166603088
 31
0.0
  0
ENDBLK
  0
ENDSEC
  0
SECTION
  2
ENTITIES
  0
INSERT
  2
SHAPE2DVIEW
  8
0
 10
0.0
 20
0.0
 30
0.0
  0
ENDSEC
  0
EOF
